<svg id="svg" version="1.1" xmlns="http://www.w3.org/2000/svg" xmlns:xlink="http://www.w3.org/1999/xlink" width="400" height="346.9194312796209" viewBox="0, 0, 400,346.9194312796209"><g id="svgg"><path id="path0" d="M341.308 24.025 C 341.056 24.264,340.225 24.754,339.462 25.113 C 338.699 25.472,337.372 26.096,336.513 26.500 C 335.655 26.903,334.900 27.350,334.837 27.493 C 334.773 27.637,334.440 27.754,334.097 27.754 C 333.754 27.754,333.040 28.339,332.510 29.055 C 331.980 29.770,331.179 30.687,330.731 31.093 C 330.282 31.498,329.440 32.435,328.860 33.174 C 327.951 34.332,326.486 36.039,323.504 39.417 C 323.122 39.849,322.223 40.875,321.505 41.697 C 320.787 42.519,319.715 43.738,319.122 44.406 C 318.529 45.074,317.259 46.557,316.300 47.702 C 315.341 48.846,314.227 50.098,313.826 50.482 C 313.425 50.866,312.684 51.725,312.181 52.390 C 311.677 53.055,310.662 54.254,309.926 55.053 C 309.189 55.853,308.118 57.081,307.546 57.782 C 306.973 58.482,305.952 59.623,305.276 60.317 C 304.600 61.011,303.725 62.000,303.332 62.515 C 302.403 63.731,299.358 67.195,297.051 69.660 C 294.711 72.160,294.689 72.874,296.878 75.139 C 300.762 79.156,301.326 80.261,299.827 80.919 C 299.302 81.150,298.757 81.519,298.617 81.741 C 298.476 81.962,297.950 82.246,297.447 82.372 C 296.945 82.498,296.307 82.828,296.030 83.105 C 295.294 83.842,295.118 83.769,293.266 81.960 C 292.338 81.054,290.804 79.688,289.856 78.925 C 288.909 78.161,287.765 77.108,287.314 76.583 C 286.864 76.058,286.353 75.629,286.179 75.629 C 286.005 75.629,285.015 74.809,283.979 73.807 C 281.314 71.232,279.562 69.731,279.219 69.731 C 279.057 69.731,278.925 69.531,278.925 69.286 C 278.925 69.040,278.495 68.579,277.971 68.259 C 277.446 67.939,276.222 66.930,275.252 66.016 C 274.282 65.102,272.340 63.339,270.938 62.099 C 266.909 58.536,265.729 57.471,264.887 56.635 C 263.892 55.647,263.567 55.656,262.000 56.722 C 261.298 57.199,260.539 57.589,260.313 57.589 C 260.087 57.589,259.850 57.706,259.786 57.849 C 259.722 57.992,258.890 58.500,257.937 58.977 C 256.983 59.454,255.617 60.197,254.901 60.629 L 253.599 61.414 253.599 59.334 C 253.599 57.058,252.819 56.360,251.226 57.212 C 250.839 57.420,250.200 57.589,249.806 57.589 C 249.412 57.589,249.089 57.727,249.089 57.896 C 249.089 58.066,248.390 58.309,247.536 58.437 C 246.682 58.565,245.903 58.799,245.806 58.957 C 245.708 59.114,244.928 59.349,244.071 59.477 C 243.215 59.605,242.429 59.849,242.324 60.017 C 242.220 60.186,241.436 60.429,240.582 60.557 C 239.727 60.685,239.029 60.928,239.029 61.098 C 239.029 61.267,238.638 61.405,238.161 61.405 C 237.684 61.405,237.294 61.546,237.294 61.719 C 237.294 61.892,236.513 62.141,235.559 62.272 C 234.605 62.404,233.825 62.632,233.825 62.781 C 233.825 62.929,233.169 63.156,232.368 63.284 C 231.566 63.412,230.747 63.649,230.546 63.811 C 230.346 63.973,229.285 64.289,228.188 64.514 C 227.091 64.739,225.983 65.133,225.727 65.390 C 225.470 65.646,224.533 65.965,223.645 66.098 C 222.756 66.232,222.029 66.474,222.029 66.636 C 222.029 66.799,221.245 67.036,220.287 67.163 C 219.329 67.290,218.465 67.523,218.368 67.680 C 218.271 67.837,217.248 68.152,216.095 68.378 C 214.943 68.605,213.807 68.983,213.571 69.219 C 213.335 69.455,212.489 69.758,211.690 69.893 C 210.891 70.028,210.158 70.267,210.061 70.425 C 209.963 70.583,209.221 70.821,208.411 70.954 C 207.601 71.088,206.782 71.318,206.592 71.466 C 206.401 71.614,205.308 71.934,204.163 72.176 C 203.018 72.419,201.769 72.880,201.388 73.200 C 201.006 73.521,199.133 74.550,197.225 75.487 C 195.317 76.423,193.703 77.307,193.640 77.450 C 193.576 77.593,193.370 77.710,193.181 77.710 C 192.230 77.710,191.784 78.788,191.993 80.581 C 192.109 81.578,192.427 87.467,192.698 93.669 C 193.235 105.947,193.361 107.012,194.233 106.674 C 194.543 106.554,195.225 106.370,195.750 106.264 C 196.275 106.158,196.704 105.950,196.704 105.802 C 196.704 105.653,197.641 105.423,198.786 105.290 C 199.932 105.158,200.956 104.908,201.062 104.736 C 201.526 103.986,201.908 104.541,201.908 105.964 C 201.908 106.811,202.064 107.601,202.255 107.719 C 203.561 108.526,202.350 108.762,196.677 108.802 C 193.419 108.826,190.414 109.000,189.999 109.190 C 189.196 109.557,186.399 110.309,184.822 110.582 C 184.297 110.672,183.868 110.867,183.868 111.015 C 183.868 111.162,183.166 111.388,182.307 111.517 C 181.448 111.646,180.746 111.885,180.746 112.049 C 180.746 112.213,180.239 112.458,179.618 112.594 C 178.998 112.730,177.668 113.367,176.663 114.009 C 175.657 114.652,174.706 115.178,174.548 115.178 C 174.390 115.178,173.901 115.490,173.461 115.872 C 172.400 116.791,171.948 116.752,172.470 115.785 C 173.023 114.760,173.087 101.941,172.542 101.254 C 172.336 100.993,172.060 100.078,171.929 99.219 C 171.798 98.361,171.489 97.346,171.243 96.964 C 170.997 96.583,170.681 95.808,170.541 95.242 C 170.264 94.116,169.124 91.372,168.591 90.546 C 168.406 90.260,168.103 89.675,167.918 89.245 C 167.732 88.816,167.420 88.465,167.225 88.465 C 167.029 88.465,166.869 88.307,166.869 88.113 C 166.869 87.534,163.961 83.261,163.567 83.261 C 163.366 83.261,162.932 82.803,162.601 82.242 C 162.270 81.682,161.429 80.706,160.733 80.074 C 160.038 79.442,158.831 78.328,158.051 77.600 C 157.272 76.871,155.893 75.857,154.987 75.345 C 154.081 74.833,153.340 74.297,153.339 74.154 C 153.339 74.011,153.154 73.894,152.928 73.894 C 152.702 73.894,152.194 73.600,151.800 73.241 C 150.935 72.453,147.793 70.772,147.184 70.772 C 146.944 70.772,146.748 70.628,146.748 70.453 C 146.748 70.277,146.292 70.033,145.736 69.911 C 145.179 69.789,144.651 69.498,144.562 69.265 C 144.472 69.033,143.562 68.632,142.538 68.375 C 141.514 68.117,140.520 67.789,140.330 67.644 C 140.139 67.499,139.163 67.270,138.161 67.136 C 137.160 67.001,136.340 66.762,136.340 66.604 C 136.340 66.446,134.782 66.207,132.878 66.072 C 130.973 65.937,129.489 65.708,129.578 65.563 C 130.338 64.333,104.933 64.277,104.096 65.507 C 103.990 65.663,102.498 65.965,100.781 66.177 C 95.610 66.815,86.797 68.715,86.456 69.265 C 86.321 69.484,85.468 69.774,84.562 69.910 C 83.656 70.046,82.914 70.275,82.914 70.420 C 82.914 70.565,82.310 70.780,81.572 70.898 C 80.834 71.016,79.781 71.347,79.231 71.634 C 78.681 71.921,77.959 72.156,77.626 72.157 C 76.834 72.160,74.241 73.288,74.241 73.629 C 74.241 73.775,73.851 73.894,73.374 73.894 C 72.897 73.894,72.507 74.043,72.507 74.225 C 72.507 74.408,71.960 74.659,71.292 74.784 C 70.624 74.910,70.078 75.121,70.078 75.255 C 70.078 75.388,69.297 75.698,68.343 75.942 C 67.389 76.187,66.609 76.528,66.609 76.702 C 66.609 76.875,66.375 77.016,66.088 77.016 C 65.802 77.016,65.568 77.173,65.568 77.363 C 65.568 77.554,65.389 77.710,65.171 77.710 C 64.952 77.710,63.638 78.257,62.249 78.925 C 60.861 79.592,59.556 80.139,59.351 80.139 C 59.145 80.139,58.977 80.261,58.977 80.410 C 58.977 80.559,58.547 80.871,58.023 81.104 C 56.883 81.610,55.056 82.659,54.814 82.946 C 54.718 83.060,53.781 83.580,52.732 84.103 C 51.683 84.625,50.545 85.352,50.203 85.718 C 49.862 86.084,49.355 86.383,49.076 86.383 C 48.797 86.383,48.569 86.521,48.569 86.688 C 48.569 86.856,48.062 87.198,47.441 87.449 C 46.821 87.700,46.236 87.992,46.141 88.099 C 46.045 88.206,45.265 88.761,44.406 89.333 C 42.050 90.903,42.158 90.808,38.121 94.796 C 35.240 97.642,34.345 98.739,34.345 99.428 C 34.345 100.324,35.828 103.419,36.716 104.378 C 36.970 104.653,37.325 105.205,37.505 105.605 C 37.684 106.004,38.205 106.956,38.661 107.719 C 39.118 108.482,39.753 109.607,40.073 110.218 C 40.392 110.830,40.873 111.512,41.142 111.735 C 41.411 111.958,41.631 112.356,41.631 112.618 C 41.631 112.881,41.774 113.096,41.950 113.096 C 42.126 113.096,42.370 113.554,42.493 114.113 C 42.615 114.672,42.940 115.316,43.214 115.543 C 43.488 115.771,43.712 116.100,43.712 116.276 C 43.712 116.451,44.030 116.936,44.419 117.354 C 44.808 117.771,45.216 118.467,45.324 118.900 C 45.433 119.333,45.661 119.688,45.831 119.688 C 46.001 119.688,46.141 119.911,46.141 120.183 C 46.141 120.456,46.345 120.885,46.595 121.137 C 46.846 121.390,47.420 122.338,47.872 123.245 C 48.324 124.152,48.971 125.192,49.311 125.557 C 49.651 125.922,50.030 126.624,50.154 127.117 C 50.277 127.610,50.500 128.014,50.648 128.014 C 50.795 128.014,51.006 128.287,51.115 128.621 C 51.374 129.413,53.014 132.197,53.635 132.898 C 53.902 133.199,54.120 133.616,54.120 133.823 C 54.120 134.031,54.237 134.253,54.380 134.316 C 54.523 134.380,55.029 135.212,55.504 136.167 C 55.979 137.121,56.649 138.210,56.992 138.588 C 57.335 138.966,57.705 139.629,57.813 140.062 C 57.922 140.496,58.150 140.850,58.320 140.850 C 58.490 140.850,58.630 141.084,58.630 141.370 C 58.630 142.070,59.552 142.008,61.232 141.197 C 61.995 140.828,62.892 140.521,63.226 140.515 C 63.560 140.508,63.833 140.359,63.833 140.184 C 63.833 140.008,64.303 139.761,64.878 139.635 C 65.452 139.509,66.123 139.205,66.368 138.959 C 67.205 138.123,68.328 137.967,68.543 138.658 C 68.651 139.005,69.111 140.069,69.566 141.023 C 71.046 144.129,71.813 145.919,71.813 146.272 C 71.813 146.598,72.634 148.282,73.737 150.217 C 74.008 150.694,74.233 151.357,74.236 151.691 C 74.239 152.025,74.373 152.298,74.533 152.298 C 74.694 152.298,75.016 152.962,75.249 153.773 C 75.839 155.823,76.958 158.196,77.335 158.196 C 77.508 158.196,77.755 158.820,77.884 159.584 C 78.013 160.347,78.240 160.971,78.390 160.971 C 78.539 160.971,78.868 161.710,79.120 162.612 C 79.373 163.515,80.330 165.740,81.247 167.556 C 82.163 169.372,82.914 170.991,82.914 171.153 C 82.914 171.454,83.501 172.867,84.680 175.407 C 85.045 176.191,85.343 176.991,85.343 177.185 C 85.343 177.380,85.557 177.717,85.820 177.935 C 86.082 178.152,86.493 179.030,86.732 179.885 C 86.972 180.740,87.303 181.440,87.469 181.440 C 87.635 181.440,87.776 181.713,87.783 182.047 C 87.789 182.381,88.096 183.278,88.465 184.042 C 88.834 184.805,89.140 185.558,89.147 185.714 C 89.153 185.871,89.394 186.234,89.681 186.521 C 89.968 186.808,90.377 187.734,90.589 188.578 C 90.802 189.422,91.101 190.113,91.254 190.113 C 91.407 190.113,91.637 190.592,91.766 191.177 C 91.894 191.762,92.218 192.660,92.485 193.172 C 92.752 193.684,92.972 194.278,92.973 194.494 C 92.974 194.709,93.208 195.078,93.493 195.314 C 93.778 195.551,94.184 196.390,94.396 197.178 C 94.608 197.967,94.900 198.690,95.046 198.786 C 95.191 198.881,95.419 199.310,95.553 199.740 L 95.797 200.520 71.229 200.526 C 44.664 200.532,44.028 200.571,41.289 202.384 C 37.591 204.831,37.767 201.484,37.885 267.129 C 38.002 332.224,37.735 326.791,40.937 329.135 C 41.795 329.763,42.728 330.471,43.010 330.707 C 43.712 331.296,115.511 331.338,116.252 330.750 C 116.520 330.537,117.910 330.260,119.341 330.134 C 125.661 329.577,136.806 327.340,137.355 326.518 C 137.465 326.354,138.413 325.808,139.462 325.304 C 142.182 323.998,143.611 323.130,144.354 322.332 C 144.710 321.950,145.680 321.170,146.509 320.600 C 147.337 320.030,148.411 319.045,148.895 318.411 C 149.379 317.778,150.234 316.791,150.796 316.219 C 151.979 315.014,154.727 310.813,154.727 310.210 C 154.727 309.985,154.879 309.801,155.065 309.801 C 155.806 309.801,157.691 304.574,158.567 300.087 C 158.809 298.846,159.176 297.720,159.382 297.584 C 159.923 297.227,159.890 284.504,159.345 283.401 C 159.118 282.942,158.615 281.162,158.227 279.445 C 157.431 275.926,155.988 271.987,155.304 271.466 C 155.054 271.275,154.404 270.356,153.860 269.423 C 152.572 267.217,148.323 262.741,146.855 262.044 C 145.356 261.333,145.402 260.989,147.268 258.958 C 148.127 258.022,148.829 257.140,148.829 256.996 C 148.829 256.853,149.389 255.859,150.074 254.789 C 152.067 251.673,152.383 250.785,153.690 244.628 C 155.168 237.668,153.307 221.845,150.916 221.048 C 150.722 220.984,150.564 220.768,150.564 220.568 C 150.564 220.369,149.939 219.291,149.176 218.173 C 147.547 215.787,147.508 215.551,148.656 215.028 C 149.133 214.811,149.523 214.512,149.523 214.365 C 149.523 214.218,149.862 213.989,150.277 213.858 C 151.079 213.603,151.250 213.488,152.712 212.218 C 153.226 211.771,154.278 211.103,155.050 210.733 C 156.525 210.027,156.896 208.929,156.129 207.541 C 155.794 206.936,155.174 204.446,154.833 202.342 C 154.733 201.722,154.527 201.214,154.376 201.214 C 154.225 201.214,153.992 200.278,153.859 199.133 C 153.727 197.988,153.507 197.051,153.371 197.051 C 153.235 197.051,152.954 196.154,152.746 195.056 C 152.152 191.920,150.947 187.401,150.549 186.817 C 150.419 186.626,150.224 185.846,150.114 185.082 L 149.915 183.695 151.020 185.052 C 152.793 187.229,158.237 192.508,158.940 192.731 C 159.294 192.843,159.584 193.080,159.584 193.258 C 159.584 193.436,159.807 193.582,160.079 193.582 C 160.352 193.582,160.786 193.793,161.043 194.050 C 161.300 194.307,162.090 194.709,162.797 194.943 C 163.505 195.176,164.177 195.517,164.290 195.700 C 164.581 196.172,167.166 197.301,168.604 197.585 C 169.271 197.717,169.974 197.947,170.165 198.095 C 171.907 199.451,188.328 199.423,189.974 198.062 C 190.184 197.888,191.082 197.646,191.969 197.525 C 192.856 197.403,193.582 197.186,193.582 197.043 C 193.582 196.899,194.113 196.682,194.761 196.560 C 195.410 196.439,196.131 196.110,196.364 195.829 C 196.596 195.549,197.392 195.138,198.133 194.916 C 198.874 194.694,199.480 194.381,199.480 194.221 C 199.480 194.060,199.722 193.929,200.018 193.929 C 200.796 193.929,203.290 192.439,203.293 191.972 C 203.295 191.754,203.657 191.485,204.099 191.374 C 204.541 191.263,205.229 190.895,205.628 190.556 C 206.027 190.217,206.698 189.705,207.120 189.419 C 207.541 189.133,208.258 188.614,208.713 188.266 L 209.540 187.634 209.540 189.567 C 209.540 190.630,209.696 191.500,209.887 191.500 C 210.078 191.500,210.235 192.320,210.236 193.322 C 210.243 199.626,210.775 201.678,212.229 201.009 C 212.563 200.856,214.241 200.534,215.958 200.295 C 217.676 200.056,219.939 199.694,220.989 199.491 C 222.038 199.288,224.536 198.961,226.539 198.764 C 228.543 198.567,230.426 198.274,230.725 198.113 C 231.024 197.951,232.782 197.706,234.633 197.567 C 236.484 197.428,238.073 197.194,238.164 197.047 C 238.255 196.899,239.775 196.666,241.541 196.529 C 243.308 196.393,244.909 196.157,245.100 196.006 C 245.291 195.855,246.149 195.546,247.008 195.319 C 248.865 194.828,254.091 192.335,254.634 191.682 C 254.844 191.429,255.437 191.116,255.952 190.987 C 257.400 190.623,257.404 190.590,257.410 179.271 C 257.413 173.404,257.508 168.604,257.622 168.604 C 257.736 168.604,258.243 168.831,258.750 169.110 C 259.256 169.388,260.440 169.951,261.380 170.361 C 262.320 170.770,263.303 171.319,263.563 171.580 C 263.824 171.841,264.655 172.239,265.410 172.465 C 266.165 172.692,266.782 173.008,266.782 173.169 C 266.782 173.329,266.977 173.466,267.216 173.472 C 267.454 173.479,268.274 173.786,269.037 174.154 C 269.801 174.523,270.646 174.830,270.916 174.836 C 271.187 174.843,271.306 174.950,271.182 175.074 C 270.918 175.338,272.149 176.027,273.484 176.362 C 273.996 176.491,274.415 176.737,274.415 176.909 C 274.415 177.081,274.883 177.324,275.455 177.450 C 276.028 177.576,276.496 177.805,276.496 177.959 C 276.496 178.114,277.042 178.343,277.710 178.468 C 278.378 178.593,278.925 178.845,278.925 179.027 C 278.925 179.209,279.159 179.358,279.445 179.358 C 279.731 179.358,279.965 179.514,279.965 179.705 C 279.965 179.896,280.120 180.052,280.309 180.052 C 280.891 180.052,284.128 181.554,284.128 181.824 C 284.128 181.964,284.636 182.189,285.256 182.323 C 285.876 182.458,286.461 182.676,286.557 182.808 C 286.806 183.153,293.330 186.297,293.797 186.297 C 294.013 186.297,294.189 186.453,294.189 186.644 C 294.189 186.834,294.384 186.991,294.623 186.993 C 294.861 186.994,295.525 187.249,296.097 187.560 C 299.125 189.205,303.083 191.144,303.422 191.148 C 303.635 191.151,304.194 191.456,304.664 191.826 C 305.134 192.196,305.936 192.603,306.445 192.731 C 306.955 192.859,307.372 193.090,307.372 193.245 C 307.372 193.400,307.840 193.630,308.413 193.755 C 308.985 193.881,309.454 194.094,309.454 194.228 C 309.454 194.362,310.145 194.675,310.989 194.925 C 311.834 195.174,312.604 195.584,312.701 195.835 C 312.797 196.086,313.355 196.397,313.940 196.526 C 314.525 196.654,315.004 196.891,315.004 197.051 C 315.004 197.212,315.473 197.446,316.045 197.572 C 316.618 197.697,317.086 197.926,317.086 198.081 C 317.086 198.235,317.621 198.462,318.275 198.585 C 318.929 198.707,319.514 198.920,319.576 199.057 C 320.178 200.397,322.566 200.729,324.000 199.671 C 324.633 199.204,325.600 198.723,326.149 198.603 C 326.697 198.482,327.147 198.252,327.147 198.092 C 327.147 197.931,327.615 197.697,328.187 197.572 C 328.760 197.446,329.228 197.202,329.228 197.030 C 329.228 196.858,329.604 196.623,330.063 196.508 C 332.394 195.923,332.333 196.350,332.433 179.687 L 332.524 164.614 333.912 164.368 C 336.901 163.837,337.554 163.657,337.554 163.360 C 337.554 163.191,337.927 163.053,338.382 163.053 C 338.837 163.053,339.657 162.820,340.203 162.535 C 340.750 162.250,341.439 162.015,341.735 162.014 C 342.030 162.013,342.421 161.879,342.602 161.716 C 342.783 161.554,343.673 161.221,344.579 160.977 C 345.486 160.734,346.227 160.411,346.227 160.260 C 346.227 160.109,346.695 159.883,347.266 159.758 C 347.837 159.632,348.423 159.328,348.567 159.081 C 348.813 158.661,352.404 156.808,352.974 156.808 C 353.117 156.808,353.763 156.301,354.408 155.681 C 355.981 154.168,356.076 154.096,359.063 152.149 C 360.494 151.216,361.743 150.345,361.839 150.213 C 361.934 150.081,362.393 149.773,362.858 149.528 C 364.183 148.829,366.583 146.755,369.397 143.878 C 370.287 142.968,371.644 141.798,372.412 141.278 C 373.179 140.758,374.432 139.748,375.195 139.034 C 375.958 138.320,376.700 137.733,376.843 137.731 C 376.986 137.729,377.103 137.493,377.103 137.207 C 377.103 136.921,377.298 136.667,377.537 136.643 C 378.145 136.581,382.872 131.466,383.142 130.578 C 383.325 129.972,382.742 129.300,379.733 126.651 C 377.552 124.730,376.174 123.270,376.281 122.992 C 376.387 122.715,375.789 122.077,374.786 121.398 C 372.851 120.089,372.197 119.543,370.919 118.174 C 370.409 117.628,369.548 116.769,369.005 116.266 C 365.548 113.058,364.961 112.252,364.961 110.707 C 364.961 109.038,366.026 107.018,368.072 104.806 C 369.024 103.776,369.895 102.644,370.008 102.291 C 370.120 101.937,370.343 101.648,370.504 101.648 C 372.007 101.648,372.763 95.522,371.552 93.148 C 371.171 92.400,370.859 91.534,370.859 91.225 C 370.859 90.915,370.742 90.545,370.598 90.402 C 370.455 90.259,370.332 90.038,370.324 89.910 C 370.284 89.274,369.034 87.410,368.146 86.663 C 367.595 86.199,367.079 85.673,367.001 85.494 C 366.422 84.175,365.141 82.566,364.667 82.561 C 364.351 82.558,363.483 81.936,362.738 81.180 C 361.992 80.423,361.094 79.712,360.743 79.601 C 360.391 79.489,360.104 79.269,360.104 79.112 C 360.104 78.955,359.714 78.728,359.237 78.609 C 358.760 78.489,358.369 78.238,358.369 78.051 C 358.369 77.863,358.135 77.710,357.849 77.710 C 357.563 77.710,357.329 77.581,357.329 77.422 C 357.329 77.263,356.977 76.964,356.548 76.756 C 353.875 75.463,351.748 74.588,351.279 74.588 C 350.981 74.588,350.737 74.432,350.737 74.241 C 350.737 74.050,350.532 73.894,350.282 73.894 C 350.032 73.894,349.184 73.584,348.399 73.204 C 346.949 72.504,342.690 71.610,338.595 71.146 L 336.340 70.891 337.467 70.408 C 338.088 70.143,338.595 69.726,338.595 69.482 C 338.595 69.237,338.806 69.037,339.064 69.037 C 339.321 69.037,340.266 68.647,341.164 68.170 C 342.061 67.693,343.021 67.303,343.297 67.303 C 343.573 67.303,343.799 67.163,343.799 66.993 C 343.799 66.823,344.153 66.595,344.586 66.486 C 345.019 66.378,345.715 65.971,346.133 65.582 C 346.550 65.193,347.114 64.874,347.384 64.874 C 347.655 64.874,348.063 64.650,348.290 64.376 C 348.518 64.102,349.161 63.778,349.720 63.655 C 350.280 63.532,350.737 63.300,350.737 63.140 C 350.737 62.979,351.206 62.745,351.778 62.619 C 352.350 62.494,352.819 62.247,352.819 62.071 C 352.819 61.896,353.054 61.752,353.343 61.752 C 353.631 61.752,354.134 61.440,354.460 61.058 C 354.787 60.676,355.215 60.364,355.410 60.364 C 355.988 60.364,361.641 57.453,361.928 57.008 C 362.073 56.784,362.736 56.420,363.403 56.200 C 364.477 55.846,365.230 54.467,364.349 54.467 C 364.204 54.467,363.931 54.173,363.742 53.815 C 363.554 53.456,362.814 52.282,362.099 51.206 C 361.383 50.130,360.798 49.131,360.798 48.986 C 360.798 48.842,360.332 48.214,359.763 47.590 C 359.194 46.967,358.302 45.723,357.781 44.824 C 357.260 43.926,356.711 43.140,356.561 43.076 C 356.411 43.012,356.288 42.741,356.288 42.472 C 356.288 42.203,355.976 41.788,355.594 41.550 C 355.212 41.312,354.900 40.946,354.900 40.737 C 354.900 40.529,354.276 39.466,353.513 38.377 C 352.749 37.287,352.125 36.312,352.125 36.210 C 352.125 36.107,351.603 35.372,350.964 34.577 C 350.326 33.782,349.700 32.897,349.573 32.611 C 349.280 31.951,348.672 31.006,345.898 26.901 C 343.571 23.457,342.569 22.830,341.308 24.025 M345.770 43.452 C 352.345 52.364,352.599 52.743,352.232 53.111 C 351.559 53.784,321.151 68.727,320.760 68.577 C 320.101 68.324,318.378 65.623,318.569 65.144 C 318.666 64.900,322.513 60.173,327.118 54.640 C 339.335 39.960,341.155 37.814,341.395 37.814 C 341.513 37.814,343.482 40.351,345.770 43.452 M242.643 72.246 C 242.730 72.676,242.986 76.461,243.211 80.659 C 243.436 84.857,243.798 91.561,244.013 95.556 L 244.406 102.821 250.798 93.822 C 254.314 88.872,259.310 81.823,261.900 78.158 C 267.043 70.879,266.937 70.967,268.619 72.593 C 269.937 73.868,273.034 76.827,282.654 86.003 C 286.327 89.506,289.332 92.471,289.332 92.591 C 289.332 92.818,285.864 96.525,271.147 112.027 C 260.048 123.717,258.825 125.028,258.816 125.239 C 258.812 125.334,260.954 126.252,263.576 127.280 C 266.198 128.307,268.812 129.351,269.384 129.600 C 270.526 130.096,280.193 133.900,284.743 135.644 C 287.238 136.599,287.697 136.909,288.262 138.016 C 293.173 147.632,306.530 156.561,318.444 158.192 C 320.012 158.407,321.519 158.668,321.792 158.773 C 322.279 158.960,322.599 180.052,322.116 180.052 C 322.020 180.052,305.394 171.778,285.169 161.665 C 264.944 151.552,248.318 143.278,248.223 143.278 C 248.127 143.278,248.049 151.932,248.049 162.509 C 248.049 181.113,248.027 181.747,247.388 181.950 C 246.367 182.274,231.504 184.284,229.662 184.347 L 228.448 184.389 228.045 179.532 C 227.824 176.860,227.530 173.269,227.391 171.551 L 227.140 168.427 228.718 165.133 C 230.075 162.299,230.922 159.970,232.439 154.900 C 233.471 151.450,233.663 141.971,232.783 137.901 C 231.379 131.408,228.869 126.274,224.857 121.690 C 222.967 119.530,222.945 119.449,222.370 112.576 C 220.439 89.489,220.246 87.259,220.174 87.187 C 220.137 87.150,218.266 87.595,216.016 88.176 C 211.142 89.434,211.715 89.884,211.569 84.689 L 211.448 80.393 214.397 79.550 C 216.019 79.087,218.088 78.483,218.994 78.209 C 221.661 77.402,223.741 76.783,227.060 75.807 C 228.777 75.302,230.924 74.666,231.830 74.392 C 236.385 73.016,237.238 72.774,238.682 72.444 C 239.540 72.247,240.391 71.947,240.572 71.776 C 241.234 71.153,242.478 71.435,242.643 72.246 M123.851 75.275 C 144.778 77.218,159.188 87.779,162.203 103.382 C 163.161 108.341,162.188 118.338,160.566 120.191 C 160.407 120.372,160.278 120.732,160.278 120.990 C 160.278 122.186,156.828 129.008,154.511 132.395 C 149.084 140.329,142.167 147.191,134.136 152.611 L 131.566 154.345 132.003 156.184 C 132.449 158.060,134.514 166.008,136.176 172.246 C 136.685 174.154,137.619 177.745,138.253 180.225 C 139.535 185.246,141.698 193.614,143.124 199.071 C 144.203 203.199,144.351 202.914,140.503 204.133 C 138.881 204.647,137.242 205.205,136.860 205.372 C 136.479 205.540,134.840 206.083,133.218 206.579 C 131.596 207.075,128.742 207.971,126.876 208.570 C 122.876 209.855,123.394 210.206,120.895 204.510 C 119.806 202.029,118.309 198.703,117.567 197.117 C 116.825 195.532,116.219 194.177,116.219 194.107 C 116.219 194.037,115.692 192.836,115.048 191.439 C 114.405 190.042,113.016 186.947,111.962 184.562 C 110.908 182.177,109.548 179.133,108.939 177.797 C 107.663 174.999,107.169 173.897,106.217 171.726 C 105.841 170.867,104.832 168.604,103.975 166.696 C 102.177 162.692,100.754 159.511,100.095 158.023 C 99.193 155.986,98.220 153.826,97.127 151.431 C 96.517 150.095,95.509 147.832,94.888 146.401 C 94.267 144.970,93.192 142.577,92.499 141.085 C 91.807 139.592,91.240 138.316,91.240 138.248 C 91.240 138.181,90.676 136.904,89.986 135.411 C 88.643 132.504,86.682 128.142,83.854 121.769 C 83.388 120.720,82.674 119.128,82.267 118.232 C 81.860 117.337,81.526 116.439,81.526 116.238 C 81.526 115.661,81.338 115.733,76.033 118.322 C 71.944 120.317,70.935 120.687,70.593 120.316 C 69.898 119.565,55.507 95.173,55.507 94.748 C 55.507 94.021,67.648 87.590,74.777 84.540 C 92.249 77.066,109.029 73.898,123.851 75.275 M341.453 81.852 C 349.192 83.657,356.437 87.906,360.482 93.014 L 361.534 94.343 356.948 99.296 C 354.425 102.021,350.942 105.738,349.207 107.556 C 347.473 109.374,343.949 113.121,341.377 115.882 C 338.805 118.643,335.397 122.251,333.805 123.901 C 330.197 127.637,330.245 127.668,337.726 126.396 C 341.703 125.720,346.662 122.971,350.446 119.344 C 353.869 116.063,353.382 116.166,355.662 118.240 C 356.674 119.160,359.297 121.527,361.492 123.499 C 370.950 131.999,370.285 130.645,366.669 134.047 C 352.312 147.553,328.305 153.249,312.291 146.949 C 285.481 136.400,284.920 99.788,311.362 86.261 C 321.031 81.315,332.157 79.685,341.453 81.852 M325.412 95.633 C 310.472 97.956,304.702 115.415,315.484 125.672 C 317.309 127.408,317.082 127.526,321.422 122.571 C 323.521 120.175,328.556 114.451,332.611 109.850 C 340.796 100.563,340.473 101.110,338.689 99.543 C 335.598 96.829,329.419 95.009,325.412 95.633 M329.695 101.750 L 331.376 102.186 330.215 103.634 C 329.577 104.430,328.895 105.089,328.699 105.099 C 328.503 105.109,327.447 106.093,326.350 107.285 C 325.254 108.478,323.425 110.468,322.285 111.709 C 321.145 112.949,320.211 114.067,320.210 114.194 C 320.205 114.886,317.691 116.963,317.315 116.586 C 316.779 116.051,316.765 109.349,317.299 109.007 C 317.512 108.871,317.808 108.369,317.956 107.892 C 318.104 107.415,318.522 106.767,318.884 106.452 C 319.363 106.035,319.421 105.836,319.095 105.725 C 318.803 105.625,319.060 105.183,319.835 104.454 C 322.552 101.900,326.305 100.871,329.695 101.750 M124.892 104.631 C 121.155 105.302,116.912 107.002,116.912 107.828 C 116.912 108.123,117.067 108.843,117.256 109.429 C 117.444 110.015,118.080 112.134,118.668 114.137 C 119.255 116.141,120.363 119.809,121.129 122.290 C 122.696 127.366,123.613 130.357,125.221 135.646 C 126.239 138.991,127.329 142.250,127.522 142.523 C 127.798 142.912,133.842 138.418,136.934 135.526 C 151.101 122.273,142.959 101.384,124.892 104.631 M132.177 112.121 C 133.831 112.731,135.702 114.274,136.366 115.576 C 138.326 119.417,136.083 127.401,132.549 129.164 L 131.531 129.671 131.306 128.342 C 131.183 127.611,130.874 126.840,130.619 126.629 C 130.364 126.417,130.049 125.472,129.920 124.527 C 129.790 123.583,129.567 122.810,129.425 122.810 C 129.282 122.810,128.971 121.718,128.732 120.383 C 128.493 119.048,128.156 117.868,127.983 117.760 C 127.809 117.653,127.667 117.184,127.667 116.718 C 127.667 116.253,127.348 115.553,126.959 115.164 C 126.228 114.433,125.585 113.060,125.585 112.229 C 125.585 111.381,129.974 111.309,132.177 112.121 M282.469 120.295 C 282.544 123.794,282.464 124.892,282.134 124.892 C 281.895 124.892,281.700 124.749,281.700 124.575 C 281.700 124.401,281.075 124.153,280.312 124.024 C 279.549 123.895,278.925 123.647,278.925 123.473 C 278.925 123.299,278.590 123.157,278.182 123.157 C 277.774 123.157,276.764 122.819,275.938 122.407 L 274.436 121.657 278.328 117.915 C 281.594 114.775,282.232 114.296,282.296 114.936 C 282.337 115.355,282.415 117.767,282.469 120.295 M203.816 117.293 C 211.920 119.369,216.805 122.524,220.741 128.225 C 234.663 148.385,217.201 180.124,190.663 182.894 C 165.361 185.534,150.993 159.866,164.781 136.657 C 173.096 122.662,190.695 113.931,203.816 117.293 M194.276 124.778 C 185.043 125.708,178.866 133.002,180.046 141.579 C 182.148 156.845,203.848 159.509,210.845 145.360 C 212.150 142.721,212.254 136.315,211.028 134.085 C 210.331 132.817,210.264 132.774,210.250 133.590 C 210.114 141.502,198.893 145.545,192.801 139.876 C 188.038 135.443,189.163 128.279,195.028 125.691 C 196.302 125.129,196.832 124.484,195.924 124.600 C 195.685 124.631,194.944 124.711,194.276 124.778 M132.524 126.800 C 132.524 127.277,132.584 127.667,132.657 127.667 C 132.730 127.667,132.864 127.277,132.956 126.800 C 133.047 126.323,132.987 125.932,132.823 125.932 C 132.658 125.932,132.524 126.323,132.524 126.800 M275.455 199.185 C 274.024 199.355,272.541 199.631,272.160 199.797 C 271.778 199.963,270.139 200.359,268.517 200.677 C 262.568 201.844,256.778 203.423,256.375 203.989 C 256.279 204.122,255.186 204.641,253.946 205.141 C 251.325 206.197,248.340 207.695,248.066 208.092 C 247.961 208.244,246.651 209.125,245.154 210.051 C 243.657 210.977,242.351 211.949,242.250 212.211 C 242.149 212.474,241.614 212.923,241.060 213.209 C 239.733 213.895,234.348 219.295,233.656 220.634 C 233.357 221.211,232.982 221.683,232.822 221.683 C 232.549 221.683,232.057 222.363,229.749 225.932 C 229.225 226.743,228.684 227.491,228.547 227.593 C 228.410 227.696,227.652 229.179,226.862 230.889 C 226.072 232.599,224.965 234.993,224.401 236.209 C 223.457 238.249,221.375 246.108,220.805 249.783 C 220.672 250.642,220.442 251.500,220.293 251.691 C 218.975 253.379,218.966 279.418,220.282 280.312 C 220.423 280.408,220.628 281.110,220.739 281.873 C 221.356 286.129,223.810 295.511,224.408 295.904 C 224.570 296.010,225.023 296.956,225.416 298.005 C 226.392 300.615,228.231 304.250,228.576 304.250 C 228.732 304.250,229.207 304.927,229.633 305.755 C 232.006 310.368,243.047 321.943,245.076 321.943 C 245.219 321.943,245.595 322.245,245.911 322.614 C 246.476 323.273,248.411 324.386,252.905 326.638 C 255.205 327.790,259.192 329.138,262.619 329.923 C 263.669 330.163,264.685 330.484,264.878 330.635 C 265.385 331.033,272.246 332.267,276.496 332.725 C 281.312 333.244,293.821 333.237,298.179 332.713 C 302.360 332.211,308.859 330.996,309.104 330.671 C 309.201 330.542,310.451 330.146,311.882 329.790 C 314.881 329.044,320.570 326.979,320.871 326.527 C 320.983 326.358,321.934 325.811,322.984 325.310 C 325.727 324.002,327.530 322.881,328.888 321.641 C 329.542 321.044,330.255 320.555,330.474 320.555 C 331.423 320.555,341.023 310.964,341.024 310.015 C 341.024 309.802,341.636 308.939,342.383 308.097 C 343.130 307.255,344.409 305.226,345.226 303.587 C 346.042 301.948,346.813 300.529,346.937 300.434 C 347.636 299.899,350.186 292.642,350.612 289.973 C 350.730 289.239,350.942 288.638,351.083 288.638 C 351.348 288.638,352.566 282.710,353.185 278.404 C 353.767 274.353,353.986 261.474,353.553 256.722 C 353.109 251.842,351.471 242.845,351.028 242.845 C 350.868 242.845,350.737 242.630,350.737 242.367 C 350.737 241.083,347.502 231.759,346.932 231.400 C 346.778 231.302,346.168 230.208,345.576 228.968 C 344.161 226.002,340.300 220.766,337.134 217.520 C 334.563 214.884,331.082 211.622,330.840 211.622 C 330.616 211.622,325.965 208.530,325.412 208.014 C 324.782 207.427,318.906 204.683,318.276 204.683 C 318.030 204.683,317.614 204.468,317.350 204.204 C 316.483 203.337,304.382 200.173,301.934 200.173 C 301.491 200.173,301.127 200.043,301.127 199.883 C 301.127 198.953,281.814 198.428,275.455 199.185 M169.297 201.150 C 166.964 201.759,164.788 203.024,164.788 203.770 C 164.788 204.005,164.609 204.377,164.390 204.595 C 164.172 204.814,163.703 205.815,163.349 206.819 C 162.453 209.364,162.337 323.135,163.229 324.845 C 163.514 325.391,163.747 326.118,163.747 326.461 C 163.747 327.229,166.644 330.269,167.376 330.269 C 167.670 330.269,167.910 330.403,167.910 330.568 C 167.910 332.137,208.636 332.175,209.887 330.607 C 209.983 330.488,210.640 330.001,211.348 329.526 C 214.994 327.079,214.744 331.772,214.744 265.869 C 214.744 207.452,214.716 206.091,213.481 204.656 C 213.222 204.355,213.010 203.953,213.010 203.764 C 213.010 203.052,210.035 201.510,207.726 201.024 C 203.934 200.226,172.438 200.329,169.297 201.150 M296.544 207.478 C 328.293 210.925,345.720 231.529,345.676 265.568 C 345.635 297.166,332.054 316.658,305.464 323.281 C 295.264 325.822,277.768 325.592,266.624 322.771 C 237.648 315.436,222.793 287.963,228.472 252.212 C 233.503 220.537,259.498 203.455,296.544 207.478 M100.607 209.154 C 100.607 209.323,101.293 210.923,102.131 212.710 C 102.970 214.497,104.063 216.930,104.561 218.118 C 105.058 219.306,105.834 221.102,106.284 222.108 C 106.734 223.114,107.463 224.757,107.906 225.759 C 108.348 226.761,108.751 227.580,108.801 227.580 C 108.851 227.580,110.736 226.975,112.989 226.235 C 122.751 223.030,129.058 221.004,131.483 220.296 C 132.914 219.879,134.910 219.239,135.919 218.875 C 138.529 217.934,138.825 218.007,140.446 220.000 C 151.320 233.368,147.238 253.142,132.081 260.524 L 128.689 262.176 131.387 263.125 C 142.920 267.182,148.906 273.379,150.987 283.414 C 154.650 301.087,144.340 317.551,127.497 320.923 C 118.097 322.806,113.895 322.984,78.816 322.984 L 46.141 322.984 46.141 265.915 L 46.141 208.846 73.374 208.846 C 88.973 208.846,100.607 208.978,100.607 209.154 M206.765 265.878 L 206.765 322.910 201.474 323.142 C 198.565 323.269,190.564 323.324,183.695 323.265 L 171.206 323.157 171.118 266.002 L 171.030 208.846 188.897 208.846 L 206.765 208.846 206.765 265.878 M82.134 232.282 C 81.990 232.431,81.873 237.288,81.873 243.076 L 81.873 253.599 90.122 253.599 C 104.981 253.599,109.087 252.290,110.848 246.989 C 113.007 240.488,110.224 234.585,104.224 232.936 C 101.986 232.321,82.646 231.748,82.134 232.282 M281.963 234.160 C 268.717 236.581,263.154 246.083,263.169 266.262 C 263.178 279.636,265.171 286.693,270.421 291.943 C 280.312 301.834,299.725 299.715,305.879 288.072 C 311.533 277.376,311.703 255.255,306.212 244.753 C 302.157 236.996,291.621 232.394,281.963 234.160 M102.685 241.014 C 103.148 241.411,103.382 242.038,103.382 242.882 C 103.382 245.034,102.638 245.273,95.936 245.273 L 90.199 245.273 90.199 242.845 L 90.199 240.416 96.093 240.416 C 101.169 240.416,102.084 240.499,102.685 241.014 M292.386 242.912 C 298.733 245.141,301.343 250.658,301.715 262.636 C 302.208 278.502,299.836 286.066,293.554 288.663 C 292.663 289.031,291.663 289.488,291.332 289.679 C 291.000 289.870,288.893 290.018,286.648 290.007 L 282.567 289.989 279.473 288.349 C 272.292 284.542,269.335 272.114,271.783 256.028 C 273.472 244.924,282.234 239.346,292.386 242.912 M81.873 286.906 L 81.873 298.432 93.582 298.257 C 107.908 298.042,110.285 297.522,113.468 293.905 C 116.979 289.917,116.708 282.295,112.939 278.985 C 109.639 276.088,107.778 275.758,93.582 275.551 L 81.873 275.381 81.873 286.906 M106.955 284.570 C 107.698 285.058,107.891 285.453,107.887 286.478 C 107.875 289.478,106.230 290.026,97.246 290.026 L 90.199 290.026 90.199 286.880 L 90.199 283.735 98.108 283.845 C 104.976 283.940,106.141 284.036,106.955 284.570 " stroke="none" fill="#085ea9" fill-rule="evenodd"></path><path id="path1" d="M331.098 50.524 C 327.684 54.653,323.524 59.660,321.852 61.652 C 318.827 65.256,318.815 65.278,319.362 66.201 C 320.832 68.680,319.499 69.070,333.912 61.951 L 346.974 55.498 345.882 54.028 C 345.281 53.220,343.211 50.412,341.281 47.788 C 339.351 45.165,337.667 43.018,337.538 43.018 C 337.409 43.018,334.511 46.396,331.098 50.524 M235.039 76.498 C 233.703 76.927,231.674 77.544,230.529 77.869 C 229.384 78.194,228.057 78.591,227.580 78.751 C 227.103 78.911,225.776 79.307,224.631 79.631 C 223.487 79.955,221.925 80.416,221.162 80.656 C 218.345 81.543,216.251 82.175,214.137 82.776 L 211.969 83.392 211.969 86.139 C 211.969 88.476,212.049 88.855,212.506 88.680 C 214.058 88.084,220.287 86.607,220.471 86.790 C 220.588 86.908,220.757 87.918,220.845 89.035 C 220.934 90.153,221.159 92.628,221.345 94.536 C 221.532 96.444,221.922 100.893,222.211 104.423 C 222.500 107.953,222.914 112.793,223.130 115.178 L 223.523 119.514 225.228 121.422 C 235.148 132.524,236.676 150.012,229.063 165.306 L 227.510 168.426 228.069 174.499 C 228.376 177.839,228.626 181.305,228.624 182.200 C 228.622 183.095,228.738 183.899,228.881 183.987 C 229.159 184.157,242.626 182.292,243.478 181.965 C 243.916 181.797,243.961 179.455,243.811 164.632 L 243.638 147.493 245.496 145.658 C 246.518 144.648,247.355 143.631,247.355 143.397 C 247.355 143.164,247.501 142.882,247.680 142.771 C 247.860 142.660,263.611 150.379,282.684 159.923 C 301.757 169.468,317.535 177.277,317.745 177.277 C 318.327 177.277,318.276 163.420,317.693 163.256 C 317.454 163.188,315.698 162.858,313.790 162.522 C 301.030 160.272,290.787 153.559,284.164 143.105 L 282.846 141.023 278.890 139.495 C 276.715 138.654,274.292 137.684,273.507 137.339 C 272.722 136.994,271.161 136.374,270.038 135.961 C 268.915 135.548,267.372 134.938,266.609 134.606 C 263.636 133.311,255.371 130.095,255.016 130.095 C 254.363 130.095,254.600 129.642,256.008 128.200 C 256.760 127.430,257.594 126.374,257.861 125.855 C 258.304 124.993,262.971 119.952,273.205 109.280 C 281.772 100.346,284.841 96.975,284.747 96.600 C 284.624 96.105,264.057 76.678,263.660 76.682 C 263.565 76.683,259.211 82.691,253.985 90.033 C 248.759 97.375,244.309 103.387,244.097 103.393 C 243.886 103.398,242.931 104.575,241.977 106.007 L 240.243 108.610 240.029 105.910 C 239.911 104.424,239.633 99.931,239.411 95.924 C 239.189 91.917,238.856 86.912,238.671 84.802 C 238.486 82.692,238.335 79.859,238.335 78.508 C 238.335 75.534,238.233 75.472,235.039 76.498 M102.515 79.970 C 89.251 81.607,75.479 85.998,62.012 92.884 C 58.974 94.438,56.895 95.705,56.895 96.004 C 56.895 96.281,59.133 100.279,61.868 104.888 C 64.603 109.498,67.731 114.792,68.818 116.652 C 71.164 120.667,70.460 120.557,76.054 117.780 C 81.976 114.840,81.123 114.474,84.131 121.249 C 84.385 121.821,85.090 123.382,85.698 124.718 C 86.307 126.054,87.423 128.552,88.179 130.269 C 90.771 136.153,93.729 142.759,94.782 145.013 C 95.361 146.253,96.340 148.439,96.957 149.870 C 97.575 151.301,98.397 153.174,98.785 154.033 C 101.734 160.567,106.056 170.224,107.712 173.981 C 108.806 176.461,110.135 179.428,110.664 180.572 C 112.098 183.674,113.068 185.831,114.327 188.725 C 114.951 190.156,116.661 193.981,118.129 197.225 C 119.597 200.468,121.339 204.371,121.999 205.898 C 123.538 209.455,123.300 209.312,126.115 208.355 C 127.446 207.902,130.852 206.793,133.684 205.891 L 138.834 204.251 138.663 203.166 C 138.569 202.570,138.179 200.911,137.796 199.480 C 137.013 196.559,135.370 190.484,134.932 188.899 C 134.775 188.326,134.157 185.984,133.560 183.695 C 132.159 178.322,131.681 176.527,130.977 173.981 C 130.660 172.836,129.790 169.558,129.045 166.696 C 128.299 163.833,127.452 160.711,127.162 159.757 C 126.871 158.803,126.632 157.989,126.630 157.947 C 126.628 157.906,127.524 157.204,128.621 156.388 C 129.718 155.572,130.741 154.708,130.894 154.467 C 131.047 154.226,132.374 153.225,133.843 152.242 C 140.338 147.894,147.656 141.084,150.484 136.757 C 151.194 135.669,151.870 134.701,151.985 134.605 C 152.379 134.278,155.421 127.772,155.421 127.257 C 155.421 126.974,155.528 126.635,155.658 126.504 C 159.144 123.018,158.864 107.790,155.179 100.473 C 151.033 92.239,142.444 85.267,132.350 81.942 C 125.709 79.755,111.743 78.832,102.515 79.970 M322.837 85.725 C 312.257 86.840,301.837 92.139,297.903 98.405 C 285.900 117.524,294.297 141.546,315.045 147.448 C 329.175 151.468,347.752 147.621,361.405 137.848 C 365.273 135.080,365.253 135.274,361.953 132.311 C 360.490 130.997,357.101 127.943,354.422 125.525 C 350.781 122.238,349.417 121.201,349.017 121.417 C 348.723 121.576,347.017 122.958,345.227 124.489 C 340.206 128.782,335.362 130.882,329.402 131.351 L 326.626 131.569 328.448 129.694 C 329.449 128.662,330.269 127.686,330.269 127.525 C 330.269 127.153,331.604 125.656,337.719 119.167 C 340.416 116.305,345.259 111.154,348.480 107.719 C 351.702 104.284,354.971 100.799,355.746 99.973 L 357.155 98.472 354.185 95.627 C 345.648 87.451,335.844 84.354,322.837 85.725 M333.978 96.352 C 336.481 97.404,340.122 99.913,340.473 100.829 C 340.607 101.177,339.402 102.799,336.947 105.572 C 334.896 107.890,330.642 112.693,327.493 116.246 C 324.345 119.798,320.854 123.752,319.735 125.032 C 317.914 127.115,317.600 127.336,316.725 127.144 C 316.005 126.985,315.388 127.169,314.365 127.845 L 312.981 128.761 311.729 127.434 C 307.023 122.442,305.815 113.544,308.953 106.977 C 310.300 104.158,313.234 100.335,313.599 100.925 C 313.751 101.171,314.137 100.980,314.680 100.388 C 319.116 95.556,327.773 93.745,333.978 96.352 M133.241 104.635 C 140.729 106.857,144.666 112.104,144.666 119.861 C 144.666 128.567,140.271 134.683,128.054 142.978 C 123.995 145.734,124.281 145.787,123.137 142.074 C 122.724 140.733,121.797 137.762,121.077 135.473 C 120.357 133.183,119.273 129.670,118.667 127.667 C 118.062 125.663,117.431 123.634,117.265 123.157 C 117.100 122.680,116.625 121.119,116.212 119.688 C 115.798 118.257,115.319 116.618,115.147 116.045 C 113.422 110.297,113.412 110.246,113.946 109.432 C 114.733 108.231,116.085 106.852,116.474 106.852 C 116.667 106.852,117.578 106.518,118.498 106.111 C 123.130 104.063,129.247 103.450,133.241 104.635 M187.858 121.647 C 184.164 122.415,180.312 123.703,177.603 125.075 C 176.646 125.560,175.689 125.849,175.475 125.718 C 175.240 125.572,175.185 125.635,175.336 125.879 C 175.485 126.120,175.261 126.403,174.777 126.587 C 173.218 127.180,170.287 129.816,168.056 132.630 C 157.629 145.789,157.281 164.104,167.261 174.506 C 182.458 190.346,212.919 181.833,219.413 159.931 C 219.724 158.881,220.150 157.483,220.359 156.824 C 222.418 150.319,220.091 136.433,216.306 132.648 C 216.019 132.362,215.782 132.021,215.779 131.892 C 215.763 131.236,210.763 126.621,208.672 125.332 C 206.254 123.842,202.797 122.522,199.306 121.757 C 197.928 121.455,189.186 121.371,187.858 121.647 M378.545 124.985 C 383.497 129.563,386.514 131.826,382.700 128.102 C 381.771 127.195,380.952 126.294,380.879 126.100 C 380.715 125.665,377.298 123.154,376.883 123.164 C 376.718 123.168,377.466 123.987,378.545 124.985 M198.269 124.550 C 198.659 125.182,194.355 128.844,192.773 129.227 C 188.238 130.323,189.830 138.439,195.084 141.010 C 200.480 143.650,205.525 142.206,205.587 138.003 L 205.624 135.533 207.409 133.830 C 208.390 132.894,209.193 131.983,209.193 131.805 C 209.193 130.414,210.807 132.378,211.666 134.816 C 216.261 147.858,197.947 163.808,185.141 157.917 C 176.362 153.878,173.016 145.600,176.911 137.553 C 179.751 131.684,186.918 125.599,192.194 124.576 C 194.404 124.148,198.011 124.132,198.269 124.550 M273.027 209.559 C 256.901 211.325,247.248 216.495,238.547 228.029 C 225.450 245.388,223.816 278.571,235.075 298.519 C 245.255 316.554,261.607 324.718,287.550 324.718 C 309.213 324.718,321.495 318.970,331.210 304.283 C 342.271 287.562,343.528 256.087,333.900 236.918 C 324.061 217.326,300.166 206.587,273.027 209.559 M46.487 267.143 L 46.487 323.016 79.879 322.887 C 128.384 322.700,132.022 322.073,139.548 312.618 C 146.981 303.280,148.463 289.768,143.238 278.974 C 140.397 273.104,134.429 268.351,126.617 265.738 L 122.930 264.505 126.201 262.976 C 139.578 256.723,144.856 241.396,138.391 227.580 C 137.264 225.170,134.127 220.799,133.298 220.480 C 132.886 220.322,113.094 226.470,110.391 227.595 C 108.808 228.255,108.394 228.011,107.431 225.852 C 106.921 224.711,106.505 223.702,106.505 223.610 C 106.505 223.519,105.802 221.940,104.944 220.103 C 104.085 218.265,103.382 216.703,103.382 216.630 C 103.382 216.461,101.710 212.649,101.337 211.969 C 101.088 211.514,97.601 211.437,73.770 211.360 L 46.487 211.271 46.487 267.143 M171.379 267.129 L 171.379 322.984 186.297 322.984 L 201.214 322.984 201.214 267.129 L 201.214 211.275 186.297 211.275 L 171.379 211.275 171.379 267.129 M103.432 232.591 C 109.265 233.827,111.888 237.029,111.832 242.845 C 111.781 248.063,108.233 252.877,104.420 252.902 C 104.133 252.904,103.196 253.278,102.339 253.734 C 98.848 255.591,97.676 255.757,86.817 255.939 L 76.670 256.110 76.670 245.141 L 76.670 234.172 79.271 234.172 L 81.873 234.172 81.873 233.131 L 81.873 232.090 91.500 232.096 C 98.436 232.101,101.772 232.239,103.432 232.591 M293.917 234.492 C 305.819 238.278,311.129 249.091,310.371 267.997 C 309.619 286.776,305.926 293.113,292.801 298.149 C 287.071 300.348,286.156 300.543,281.526 300.550 C 264.817 300.575,256.523 288.364,257.530 265.221 C 258.170 250.498,262.262 242.229,270.945 238.114 C 272.376 237.436,274.406 236.441,275.455 235.903 C 280.374 233.383,288.482 232.763,293.917 234.492 M104.976 275.482 C 108.669 275.995,111.024 276.954,113.032 278.760 C 119.150 284.259,116.695 294.835,108.730 297.295 C 107.529 297.666,105.945 298.277,105.210 298.652 C 101.946 300.317,100.374 300.505,88.205 300.685 L 76.670 300.856 76.670 289.196 L 76.670 277.537 79.271 277.537 L 81.873 277.537 81.873 276.323 L 81.873 275.108 92.082 275.108 C 97.697 275.108,103.500 275.276,104.976 275.482 " stroke="none" fill="#f8c804" fill-rule="evenodd"></path><path id="path2" d="M339.128 40.763 C 338.040 42.003,337.287 43.018,337.455 43.018 C 337.822 43.018,346.778 55.135,346.679 55.496 C 346.641 55.634,347.525 55.267,348.645 54.680 C 349.764 54.093,350.606 53.495,350.517 53.350 C 350.427 53.205,350.558 53.162,350.806 53.253 C 351.054 53.344,351.476 53.279,351.743 53.109 C 352.232 52.798,347.524 45.872,346.934 46.034 C 346.800 46.072,346.690 45.910,346.690 45.675 C 346.690 45.130,341.812 38.508,341.410 38.508 C 341.244 38.508,340.217 39.523,339.128 40.763 M240.794 72.065 C 240.318 72.155,240.121 72.324,240.337 72.458 C 240.547 72.587,240.143 72.715,239.440 72.742 C 238.737 72.769,236.756 73.245,235.039 73.801 C 233.322 74.356,230.084 75.338,227.844 75.982 C 225.199 76.743,223.922 77.259,224.201 77.455 C 224.482 77.651,224.390 77.690,223.938 77.566 C 223.212 77.368,222.343 77.579,215.785 79.545 L 211.795 80.742 211.758 83.302 C 211.738 84.711,211.785 85.305,211.862 84.622 C 211.998 83.429,212.085 83.359,214.154 82.771 C 216.251 82.175,218.346 81.543,221.162 80.656 C 221.925 80.416,223.487 79.955,224.631 79.631 C 225.776 79.307,227.103 78.911,227.580 78.751 C 228.057 78.591,229.384 78.194,230.529 77.869 C 231.674 77.544,233.703 76.927,235.039 76.498 C 238.233 75.472,238.335 75.534,238.335 78.508 C 238.335 79.859,238.486 82.692,238.671 84.802 C 238.856 86.912,239.189 91.917,239.411 95.924 C 239.633 99.931,239.911 104.424,240.029 105.910 L 240.243 108.610 241.977 106.007 C 242.931 104.575,243.891 103.398,244.109 103.393 C 244.385 103.386,244.421 102.988,244.226 102.082 C 244.073 101.366,243.616 95.082,243.210 88.118 C 242.388 73.992,242.206 71.792,241.866 71.860 C 241.736 71.886,241.254 71.978,240.794 72.065 M265.700 73.461 C 263.333 76.632,263.145 76.070,268.125 80.698 C 285.818 97.138,285.213 96.490,284.080 97.776 C 283.630 98.288,284.541 97.378,286.106 95.754 C 287.671 94.130,288.959 92.706,288.968 92.589 C 289.004 92.147,281.434 85.376,281.170 85.614 C 281.019 85.751,280.996 85.685,281.121 85.468 C 281.249 85.244,280.461 84.266,279.305 83.213 C 278.182 82.190,275.003 79.206,272.241 76.583 C 266.383 71.018,267.224 71.419,265.700 73.461 M110.398 75.655 C 105.631 76.021,98.789 77.133,94.536 78.234 C 88.991 79.669,84.978 80.954,85.343 81.180 C 85.528 81.294,85.174 81.394,84.557 81.402 C 81.113 81.445,56.190 93.447,56.207 95.055 C 56.214 95.831,56.883 96.813,56.890 96.059 C 56.896 95.394,65.025 91.146,71.292 88.531 C 91.656 80.035,109.216 77.647,127.840 80.840 C 137.355 82.472,147.025 88.592,153.046 96.793 C 158.380 104.058,159.708 115.386,156.350 124.972 C 156.100 125.684,155.789 126.373,155.658 126.504 C 155.528 126.635,155.421 126.974,155.421 127.257 C 155.421 127.775,152.376 134.282,151.983 134.605 C 151.562 134.951,149.816 137.802,150.153 137.594 C 150.979 137.083,155.517 130.307,157.265 126.973 C 160.294 121.196,162.359 113.663,162.359 108.390 C 162.359 104.756,160.616 97.582,159.848 98.056 C 159.637 98.186,159.577 98.124,159.708 97.911 C 160.000 97.439,159.237 95.709,158.843 95.953 C 158.682 96.052,158.633 95.918,158.734 95.655 C 159.030 94.885,156.202 90.944,153.184 87.921 C 147.870 82.598,137.483 76.928,134.129 77.518 C 133.377 77.650,133.251 77.620,133.719 77.421 C 134.198 77.217,133.282 76.963,130.551 76.544 C 122.618 75.326,117.575 75.103,110.398 75.655 M328.019 81.563 C 323.645 82.024,315.001 84.352,314.336 85.248 C 314.226 85.396,313.872 85.560,313.547 85.614 C 311.597 85.938,303.422 91.615,301.127 94.238 L 300.260 95.230 301.127 94.507 C 301.605 94.110,302.383 93.439,302.859 93.016 C 306.510 89.769,316.432 86.350,324.308 85.625 C 336.324 84.520,345.902 87.731,354.231 95.656 L 357.261 98.540 359.180 96.385 L 361.100 94.230 360.119 93.112 C 352.417 84.341,340.923 80.205,328.019 81.563 M221.416 96.791 C 221.416 97.459,221.488 97.732,221.575 97.398 C 221.662 97.064,221.662 96.518,221.575 96.184 C 221.488 95.850,221.416 96.123,221.416 96.791 M311.770 102.495 C 305.706 109.939,305.688 121.026,311.729 127.434 L 312.981 128.761 314.332 127.867 C 315.075 127.375,315.810 126.973,315.964 126.973 C 316.118 126.973,315.425 126.106,314.423 125.047 C 313.421 123.988,312.094 122.075,311.472 120.797 C 310.851 119.519,310.239 118.395,310.112 118.300 C 309.801 118.066,309.808 107.546,310.120 107.546 C 310.256 107.546,310.719 106.696,311.149 105.659 C 311.579 104.621,312.582 103.021,313.378 102.103 C 314.174 101.185,314.568 100.635,314.255 100.882 C 313.816 101.226,313.652 101.233,313.544 100.910 C 313.467 100.678,312.669 101.392,311.770 102.495 M349.854 106.245 L 348.482 107.719 349.957 106.348 C 350.768 105.593,351.431 104.930,351.431 104.873 C 351.431 104.611,351.129 104.873,349.854 106.245 M115.494 107.479 C 115.191 107.802,114.600 108.540,114.182 109.120 L 113.421 110.175 114.128 112.590 C 114.516 113.918,114.975 115.473,115.147 116.045 C 115.319 116.618,115.798 118.257,116.212 119.688 C 116.625 121.119,117.100 122.680,117.265 123.157 C 117.431 123.634,118.062 125.663,118.667 127.667 C 119.273 129.670,120.357 133.183,121.077 135.473 C 121.797 137.762,122.724 140.733,123.137 142.074 C 124.238 145.648,124.253 145.661,125.818 144.495 C 126.549 143.951,127.182 143.485,127.225 143.459 C 127.268 143.432,126.775 141.781,126.129 139.789 C 125.483 137.796,124.454 134.527,123.842 132.524 C 123.230 130.520,122.133 127.008,121.403 124.718 C 120.674 122.428,119.731 119.384,119.308 117.953 C 118.885 116.522,118.444 115.273,118.329 115.178 C 118.213 115.082,118.099 114.593,118.075 114.091 C 118.051 113.589,117.619 111.903,117.115 110.346 C 116.610 108.788,116.290 107.364,116.402 107.182 C 116.740 106.636,116.085 106.850,115.494 107.479 M271.280 111.275 L 269.384 113.270 271.379 111.374 C 272.476 110.331,273.374 109.433,273.374 109.379 C 273.374 109.121,273.042 109.422,271.280 111.275 M292.195 116.739 C 292.199 117.502,292.270 117.774,292.353 117.342 C 292.436 116.910,292.433 116.286,292.346 115.954 C 292.259 115.623,292.191 115.976,292.195 116.739 M351.074 119.190 C 349.839 120.442,349.013 121.418,349.237 121.358 C 349.597 121.262,358.862 129.321,363.292 133.582 L 364.933 135.161 367.028 133.294 C 368.181 132.268,369.124 131.297,369.124 131.138 C 369.124 130.549,354.847 117.945,354.443 118.177 C 354.217 118.306,354.149 118.284,354.290 118.127 C 354.547 117.844,353.977 116.912,353.547 116.912 C 353.422 116.912,352.309 117.937,351.074 119.190 M192.394 117.514 C 191.601 117.631,191.487 117.740,191.874 118.011 C 192.229 118.261,192.052 118.304,191.245 118.166 C 187.963 117.601,176.744 123.249,172.890 127.407 L 171.899 128.476 173.114 127.602 C 173.781 127.122,174.611 126.629,174.957 126.506 C 175.322 126.377,175.482 126.115,175.337 125.881 C 175.185 125.635,175.239 125.572,175.475 125.718 C 175.689 125.849,176.677 125.545,177.673 125.040 C 187.523 120.049,200.295 120.169,208.672 125.332 C 210.763 126.621,215.763 131.236,215.779 131.892 C 215.782 132.021,216.019 132.362,216.306 132.648 C 220.091 136.433,222.418 150.319,220.359 156.824 C 220.150 157.483,219.724 158.881,219.413 159.931 C 218.197 164.033,215.426 168.984,212.715 171.899 L 211.101 173.634 212.953 171.899 C 218.553 166.652,225.092 154.772,224.243 151.388 C 224.094 150.794,224.137 150.539,224.363 150.679 C 224.876 150.996,225.144 148.874,225.144 144.493 C 225.144 140.394,224.853 137.782,224.466 138.408 C 224.334 138.621,224.224 138.126,224.222 137.308 C 224.198 130.158,212.271 118.184,205.173 118.184 C 204.316 118.184,203.789 118.077,204.001 117.946 C 204.911 117.384,195.607 117.037,192.394 117.514 M333.548 123.591 L 332.177 125.065 333.651 123.694 C 335.023 122.418,335.285 122.116,335.023 122.116 C 334.966 122.116,334.303 122.780,333.548 123.591 M346.054 123.379 C 345.672 123.680,344.622 124.277,343.719 124.705 C 342.816 125.133,342.192 125.610,342.331 125.764 C 342.471 125.918,342.408 125.943,342.191 125.819 C 341.975 125.695,341.038 125.838,340.110 126.136 C 337.666 126.919,331.983 127.641,331.049 127.287 C 330.510 127.082,330.269 127.118,330.269 127.404 C 330.269 127.632,329.449 128.662,328.448 129.694 L 326.626 131.569 329.402 131.351 C 335.496 130.872,340.725 128.593,345.360 124.395 C 347.048 122.866,347.450 122.278,346.054 123.379 M197.388 124.531 C 198.013 124.926,197.958 124.972,196.006 125.695 C 192.839 126.866,189.992 129.936,192.713 129.245 C 195.408 128.561,199.532 124.184,197.464 124.203 C 196.968 124.208,196.956 124.258,197.388 124.531 M258.150 125.297 C 258.127 125.616,257.329 126.731,256.375 127.774 C 254.585 129.732,254.373 130.095,255.016 130.095 C 255.371 130.095,263.636 133.311,266.609 134.606 C 267.372 134.938,268.915 135.548,270.038 135.961 C 271.161 136.374,272.722 136.994,273.507 137.339 C 274.292 137.684,276.715 138.654,278.890 139.495 L 282.846 141.023 284.164 143.105 C 290.787 153.559,301.030 160.272,313.790 162.522 C 315.698 162.858,317.454 163.188,317.693 163.256 C 318.021 163.348,318.127 165.064,318.127 170.327 C 318.127 175.648,318.025 177.280,317.693 177.291 C 317.216 177.306,321.123 179.358,321.629 179.358 C 321.809 179.358,321.943 174.991,321.943 169.124 L 321.943 158.890 320.468 158.826 C 317.862 158.713,317.595 158.684,317.251 158.479 C 317.065 158.368,316.366 158.170,315.698 158.039 C 309.068 156.736,300.725 152.426,295.719 147.719 C 294.748 146.805,293.850 146.135,293.724 146.229 C 293.598 146.324,293.569 146.301,293.658 146.180 C 293.748 146.058,293.105 145.162,292.230 144.189 C 291.354 143.215,289.874 141.228,288.941 139.773 L 287.243 137.127 283.728 135.675 C 281.794 134.876,279.992 134.307,279.724 134.410 C 279.455 134.513,279.313 134.471,279.408 134.317 C 279.567 134.061,259.639 125.932,258.851 125.932 C 258.662 125.932,258.436 125.659,258.348 125.325 C 258.208 124.790,258.185 124.786,258.150 125.297 M181.466 131.356 C 174.516 138.675,173.405 145.603,178.094 152.400 C 183.868 160.772,196.077 161.409,204.404 153.773 C 207.075 151.323,207.129 151.169,204.801 152.645 C 203.898 153.218,202.989 153.686,202.781 153.686 C 202.572 153.686,201.827 153.979,201.124 154.337 C 199.869 154.977,191.500 155.297,191.500 154.704 C 191.500 154.586,190.837 154.293,190.026 154.052 C 179.748 150.999,175.989 137.552,183.263 129.861 C 184.224 128.845,184.927 128.014,184.825 128.014 C 184.724 128.014,183.212 129.518,181.466 131.356 M209.193 131.805 C 209.193 131.983,208.394 132.890,207.417 133.822 L 205.641 135.516 205.595 138.145 L 205.550 140.774 206.448 140.135 C 207.747 139.210,208.249 138.511,207.955 138.036 C 207.795 137.777,207.846 137.711,208.089 137.862 C 208.682 138.228,209.581 135.761,209.684 133.478 C 209.734 132.381,209.644 131.483,209.484 131.483 C 209.324 131.483,209.193 131.628,209.193 131.805 M137.369 135.559 L 135.473 137.554 137.467 135.658 C 139.321 133.896,139.621 133.565,139.364 133.565 C 139.309 133.565,138.412 134.462,137.369 135.559 M145.003 143.192 L 142.758 145.533 145.100 143.288 C 146.388 142.054,147.441 141.000,147.441 140.947 C 147.441 140.691,147.088 141.017,145.003 143.192 M247.469 143.192 C 247.353 143.526,246.460 144.624,245.485 145.633 L 243.712 147.466 243.712 164.815 L 243.712 182.163 245.100 181.950 C 247.992 181.504,247.702 183.706,247.702 162.191 C 247.702 147.154,247.796 142.951,248.135 142.814 C 248.475 142.677,248.473 142.633,248.124 142.612 C 247.880 142.597,247.585 142.858,247.469 143.192 M326.539 149.415 C 326.873 149.502,327.420 149.502,327.754 149.415 C 328.088 149.328,327.814 149.257,327.147 149.257 C 326.479 149.257,326.206 149.328,326.539 149.415 M159.698 155.247 C 159.699 156.583,159.762 157.087,159.837 156.367 C 159.912 155.647,159.911 154.554,159.834 153.938 C 159.757 153.323,159.696 153.912,159.698 155.247 M130.739 154.618 C 130.671 154.773,129.718 155.569,128.621 156.386 C 127.524 157.203,126.628 157.906,126.630 157.947 C 126.632 157.989,126.871 158.803,127.162 159.757 C 127.452 160.711,128.299 163.833,129.045 166.696 C 129.790 169.558,130.660 172.836,130.977 173.981 C 131.681 176.527,132.159 178.322,133.560 183.695 C 134.157 185.984,134.775 188.326,134.932 188.899 C 135.370 190.484,137.013 196.559,137.796 199.480 C 138.179 200.911,138.573 202.599,138.671 203.231 C 138.810 204.123,138.976 204.329,139.416 204.151 C 139.728 204.025,140.717 203.699,141.616 203.426 C 143.653 202.808,143.682 202.756,143.146 200.672 C 142.863 199.569,142.624 199.145,142.475 199.480 C 142.346 199.770,142.321 199.683,142.417 199.285 C 142.512 198.892,142.288 197.409,141.920 195.989 C 141.552 194.570,140.526 190.598,139.641 187.164 C 138.755 183.729,137.739 179.827,137.382 178.491 C 137.024 177.155,136.245 174.189,135.650 171.899 C 135.054 169.610,134.093 165.941,133.513 163.747 C 132.934 161.552,132.173 158.610,131.822 157.208 C 131.176 154.625,130.960 154.110,130.739 154.618 M189.506 182.720 C 189.840 182.807,190.386 182.807,190.720 182.720 C 191.054 182.632,190.781 182.561,190.113 182.561 C 189.445 182.561,189.172 182.632,189.506 182.720 M280.486 207.357 C 274.620 207.679,262.325 210.291,260.221 211.663 C 259.737 211.978,259.743 211.999,260.269 211.836 C 275.142 207.227,299.009 208.972,312.283 215.639 C 331.080 225.079,340.125 241.967,340.138 267.650 C 340.151 291.974,332.878 308.146,317.454 318.089 C 314.593 319.934,314.501 320.044,316.584 319.127 C 336.384 310.413,346.963 288.477,345.165 259.865 C 342.913 224.024,319.729 205.203,280.486 207.357 M46.487 210.234 L 46.487 211.275 73.651 211.275 C 94.919 211.275,100.910 211.369,101.250 211.709 C 101.489 211.947,101.325 211.480,100.885 210.671 L 100.087 209.199 73.287 209.196 L 46.487 209.193 46.487 210.234 M171.379 210.234 L 171.379 211.275 186.297 211.275 L 201.214 211.275 201.214 267.129 L 201.214 322.984 203.816 322.984 L 206.418 322.984 206.418 266.088 L 206.418 209.193 188.899 209.193 L 171.379 209.193 171.379 210.234 M135.473 219.335 C 132.919 220.194,133.020 220.097,133.837 220.914 C 144.040 231.117,143.089 251.158,132.004 259.527 C 128.897 261.873,129.715 261.691,134.258 259.026 C 146.942 251.586,150.129 232.440,140.619 220.815 C 138.690 218.458,138.361 218.363,135.473 219.335 M76.670 245.141 L 76.670 256.110 86.817 255.944 C 95.913 255.795,97.199 255.702,99.224 255.047 C 101.980 254.156,103.604 253.120,101.648 253.502 C 100.980 253.632,96.219 253.746,91.067 253.756 L 81.700 253.773 81.700 243.972 L 81.700 234.172 79.185 234.172 L 76.670 234.172 76.670 245.141 M270.732 238.150 C 262.153 242.469,258.164 250.651,257.530 265.221 C 256.519 288.464,264.822 300.599,281.700 300.547 C 285.661 300.535,286.330 300.436,289.429 299.396 C 293.464 298.042,293.490 297.912,289.649 298.295 C 271.196 300.137,261.978 288.176,262.726 263.361 C 263.117 250.419,265.955 242.938,272.403 237.857 C 273.930 236.653,273.582 236.714,270.732 238.150 M125.187 263.434 L 122.880 264.529 126.416 265.664 C 134.172 268.154,140.377 273.064,143.238 278.974 C 149.576 292.068,145.818 308.964,134.672 317.493 C 132.171 319.407,132.172 319.469,134.682 318.354 C 143.517 314.430,150.348 304.214,151.266 293.551 C 152.638 277.628,144.573 266.784,128.187 262.520 C 127.796 262.418,126.487 262.817,125.187 263.434 M76.670 289.196 L 76.670 300.856 88.205 300.685 C 100.326 300.506,102.035 300.304,105.106 298.687 L 106.331 298.042 103.903 298.284 C 102.567 298.417,97.025 298.526,91.587 298.526 L 81.700 298.526 81.608 288.031 L 81.516 277.537 79.093 277.537 L 76.670 277.537 76.670 289.196 " stroke="none" fill="#bc8c04" fill-rule="evenodd"></path><path id="path3" d="M340.470 38.942 L 339.809 39.722 340.583 39.067 C 341.255 38.499,341.439 38.476,341.971 38.894 C 342.529 39.332,342.541 39.320,342.108 38.768 C 341.489 37.979,341.266 38.002,340.470 38.942 M241.110 71.841 C 240.699 72.128,240.749 72.160,241.346 71.993 C 241.943 71.826,242.132 71.948,242.247 72.578 C 242.385 73.338,242.390 73.336,242.358 72.533 C 242.319 71.570,241.862 71.315,241.110 71.841 M266.576 71.866 C 266.415 72.126,266.481 72.172,266.764 71.997 C 267.048 71.822,268.063 72.558,269.680 74.112 L 272.160 76.496 269.740 73.981 C 267.223 71.363,266.985 71.204,266.576 71.866 M110.581 75.533 C 111.201 75.610,112.216 75.610,112.836 75.533 C 113.456 75.456,112.949 75.393,111.709 75.393 C 110.468 75.393,109.961 75.456,110.581 75.533 M121.509 75.530 C 122.034 75.610,122.892 75.610,123.417 75.530 C 123.942 75.451,123.513 75.386,122.463 75.386 C 121.414 75.386,120.984 75.451,121.509 75.530 M242.605 78.231 C 242.607 79.376,242.672 79.802,242.749 79.179 C 242.826 78.555,242.825 77.618,242.746 77.097 C 242.667 76.576,242.603 77.086,242.605 78.231 M275.802 79.965 C 276.839 81.015,277.765 81.873,277.860 81.873 C 277.955 81.873,277.186 81.015,276.149 79.965 C 275.113 78.916,274.187 78.057,274.091 78.057 C 273.996 78.057,274.766 78.916,275.802 79.965 M328.448 81.424 C 328.877 81.507,329.579 81.507,330.009 81.424 C 330.438 81.342,330.087 81.274,329.228 81.274 C 328.369 81.274,328.018 81.342,328.448 81.424 M335.386 81.424 C 335.815 81.507,336.518 81.507,336.947 81.424 C 337.376 81.342,337.025 81.274,336.167 81.274 C 335.308 81.274,334.957 81.342,335.386 81.424 M242.952 83.435 C 242.954 84.579,243.019 85.006,243.096 84.382 C 243.173 83.759,243.172 82.822,243.093 82.301 C 243.013 81.780,242.950 82.290,242.952 83.435 M211.721 87.251 C 211.724 88.205,211.791 88.554,211.871 88.026 C 211.951 87.499,211.948 86.719,211.866 86.292 C 211.784 85.865,211.718 86.297,211.721 87.251 M283.608 87.424 C 284.548 88.378,285.395 89.159,285.490 89.159 C 285.585 89.159,284.895 88.378,283.955 87.424 C 283.015 86.470,282.168 85.690,282.073 85.690 C 281.978 85.690,282.668 86.470,283.608 87.424 M153.166 87.771 C 153.911 88.534,154.599 89.159,154.694 89.159 C 154.790 89.159,154.258 88.534,153.513 87.771 C 152.767 87.008,152.079 86.383,151.984 86.383 C 151.889 86.383,152.420 87.008,153.166 87.771 M243.286 89.506 C 243.286 90.364,243.354 90.716,243.437 90.286 C 243.519 89.857,243.519 89.154,243.437 88.725 C 243.354 88.296,243.286 88.647,243.286 89.506 M357.329 90.373 C 357.976 91.041,358.584 91.587,358.679 91.587 C 358.774 91.587,358.323 91.041,357.676 90.373 C 357.028 89.705,356.421 89.159,356.325 89.159 C 356.230 89.159,356.681 89.705,357.329 90.373 M243.638 95.230 C 243.640 96.184,243.708 96.533,243.788 96.006 C 243.867 95.478,243.865 94.698,243.783 94.271 C 243.700 93.844,243.635 94.276,243.638 95.230 M286.191 95.663 L 284.996 96.964 286.297 95.769 C 287.508 94.656,287.757 94.363,287.492 94.363 C 287.434 94.363,286.849 94.948,286.191 95.663 M326.713 95.301 C 327.142 95.384,327.845 95.384,328.274 95.301 C 328.703 95.219,328.352 95.151,327.493 95.151 C 326.635 95.151,326.284 95.219,326.713 95.301 M221.416 98.873 C 221.416 99.540,221.488 99.814,221.575 99.480 C 221.662 99.146,221.662 98.599,221.575 98.265 C 221.488 97.931,221.416 98.205,221.416 98.873 M356.787 98.959 L 355.768 100.087 356.895 99.068 C 357.946 98.118,358.182 97.832,357.914 97.832 C 357.854 97.832,357.347 98.339,356.787 98.959 M243.973 100.087 C 243.977 100.850,244.048 101.121,244.131 100.690 C 244.214 100.258,244.211 99.634,244.124 99.302 C 244.037 98.970,243.969 99.324,243.973 100.087 M279.965 102.168 C 279.123 103.027,278.511 103.729,278.607 103.729 C 278.702 103.729,279.470 103.027,280.312 102.168 C 281.155 101.310,281.766 100.607,281.671 100.607 C 281.576 100.607,280.808 101.310,279.965 102.168 M352.277 103.816 L 351.258 104.944 352.385 103.925 C 353.005 103.364,353.513 102.857,353.513 102.797 C 353.513 102.529,353.226 102.765,352.277 103.816 M274.761 107.719 C 273.919 108.578,273.307 109.280,273.403 109.280 C 273.498 109.280,274.266 108.578,275.108 107.719 C 275.951 106.860,276.563 106.158,276.467 106.158 C 276.372 106.158,275.604 106.860,274.761 107.719 M116.352 107.351 C 116.247 107.626,116.308 108.114,116.489 108.437 C 116.747 108.899,116.809 108.793,116.778 107.939 C 116.735 106.738,116.638 106.605,116.352 107.351 M140.330 108.933 C 141.075 109.696,141.763 110.321,141.858 110.321 C 141.953 110.321,141.422 109.696,140.676 108.933 C 139.931 108.170,139.243 107.546,139.148 107.546 C 139.053 107.546,139.584 108.170,140.330 108.933 M346.041 110.408 L 344.319 112.229 346.141 110.507 C 347.833 108.908,348.121 108.586,347.862 108.586 C 347.807 108.586,346.988 109.406,346.041 110.408 M222.464 110.841 C 222.468 111.605,222.539 111.876,222.622 111.444 C 222.705 111.013,222.702 110.388,222.615 110.057 C 222.528 109.725,222.460 110.078,222.464 110.841 M292.188 114.484 C 292.188 115.152,292.259 115.425,292.347 115.091 C 292.434 114.757,292.434 114.211,292.347 113.877 C 292.259 113.543,292.188 113.816,292.188 114.484 M267.476 115.351 C 266.633 116.210,266.022 116.912,266.117 116.912 C 266.213 116.912,266.980 116.210,267.823 115.351 C 268.666 114.493,269.277 113.790,269.182 113.790 C 269.086 113.790,268.319 114.493,267.476 115.351 M328.339 114.918 L 327.320 116.045 328.448 115.026 C 329.068 114.466,329.575 113.958,329.575 113.899 C 329.575 113.631,329.289 113.867,328.339 114.918 M341.184 115.611 L 339.462 117.433 341.284 115.711 C 342.976 114.112,343.264 113.790,343.005 113.790 C 342.950 113.790,342.131 114.610,341.184 115.611 M352.774 117.173 C 352.341 117.725,352.354 117.736,352.916 117.295 C 353.458 116.869,353.647 116.911,354.477 117.642 L 355.421 118.474 354.580 117.520 C 353.592 116.400,353.408 116.364,352.774 117.173 M196.627 117.167 C 197.443 117.240,198.692 117.239,199.402 117.165 C 200.113 117.090,199.445 117.030,197.918 117.031 C 196.392 117.033,195.811 117.094,196.627 117.167 M144.433 119.861 C 144.435 121.197,144.497 121.701,144.572 120.981 C 144.647 120.261,144.646 119.168,144.570 118.553 C 144.493 117.937,144.431 118.526,144.433 119.861 M292.188 118.994 C 292.188 119.662,292.259 119.935,292.347 119.601 C 292.434 119.267,292.434 118.721,292.347 118.387 C 292.259 118.053,292.188 118.326,292.188 118.994 M357.676 120.555 C 358.323 121.223,358.931 121.769,359.026 121.769 C 359.121 121.769,358.670 121.223,358.023 120.555 C 357.375 119.887,356.768 119.341,356.672 119.341 C 356.577 119.341,357.028 119.887,357.676 120.555 M336.148 120.989 L 334.952 122.290 336.253 121.094 C 337.464 119.981,337.714 119.688,337.449 119.688 C 337.391 119.688,336.805 120.273,336.148 120.989 M261.220 122.029 L 259.324 124.024 261.318 122.128 C 262.415 121.085,263.313 120.187,263.313 120.133 C 263.313 119.876,262.981 120.176,261.220 122.029 M361.145 123.677 C 361.792 124.345,362.400 124.892,362.495 124.892 C 362.591 124.892,362.139 124.345,361.492 123.677 C 360.844 123.010,360.237 122.463,360.141 122.463 C 360.046 122.463,360.498 123.010,361.145 123.677 M377.783 124.631 C 379.220 126.163,379.532 126.439,379.532 126.178 C 379.532 126.122,378.790 125.381,377.884 124.530 L 376.236 122.984 377.783 124.631 M175.529 124.917 L 174.328 125.982 175.629 125.049 C 176.778 124.224,177.153 123.851,176.830 123.851 C 176.775 123.851,176.190 124.330,175.529 124.917 M195.660 124.455 C 196.327 124.535,196.982 124.779,197.116 124.996 C 197.250 125.214,197.481 125.271,197.629 125.123 C 198.066 124.686,196.972 124.204,195.663 124.259 L 194.449 124.309 195.660 124.455 M314.657 125.412 C 315.305 126.080,315.912 126.626,316.008 126.626 C 316.103 126.626,315.652 126.080,315.004 125.412 C 314.357 124.744,313.749 124.198,313.654 124.198 C 313.559 124.198,314.010 124.744,314.657 125.412 M331.461 126.019 L 330.442 127.147 331.570 126.128 C 332.190 125.567,332.697 125.060,332.697 125.000 C 332.697 124.732,332.411 124.968,331.461 126.019 M363.920 126.041 C 363.920 126.101,364.428 126.608,365.048 127.168 L 366.175 128.187 365.156 127.060 C 364.206 126.009,363.920 125.773,363.920 126.041 M171.196 128.794 L 168.777 131.310 171.292 128.890 C 173.628 126.644,173.966 126.279,173.711 126.279 C 173.659 126.279,172.527 127.411,171.196 128.794 M367.389 129.163 C 367.389 129.223,367.897 129.730,368.517 130.291 L 369.644 131.310 368.625 130.182 C 367.676 129.131,367.389 128.895,367.389 129.163 M209.540 132.340 C 209.540 132.649,209.744 132.771,210.059 132.650 C 210.344 132.541,210.491 132.311,210.385 132.141 C 210.082 131.651,209.540 131.778,209.540 132.340 M152.644 134.345 C 152.133 135.043,152.050 135.285,152.424 134.981 C 152.993 134.519,153.853 133.218,153.590 133.218 C 153.524 133.218,153.098 133.725,152.644 134.345 M365.113 135.039 L 364.094 136.167 365.221 135.148 C 366.272 134.198,366.508 133.912,366.240 133.912 C 366.180 133.912,365.673 134.419,365.113 135.039 M191.500 138.530 C 191.500 138.590,192.008 139.097,192.628 139.658 L 193.755 140.676 192.736 139.549 C 191.787 138.498,191.500 138.262,191.500 138.530 M225.273 144.319 C 225.273 145.941,225.333 146.605,225.406 145.794 C 225.479 144.983,225.479 143.656,225.406 142.845 C 225.333 142.034,225.273 142.697,225.273 144.319 M199.224 142.487 C 199.752 142.566,200.532 142.564,200.959 142.482 C 201.385 142.400,200.954 142.334,200.000 142.337 C 199.046 142.339,198.697 142.407,199.224 142.487 M233.558 148.135 C 233.558 148.803,233.630 149.076,233.717 148.742 C 233.804 148.408,233.804 147.862,233.717 147.528 C 233.630 147.194,233.558 147.467,233.558 148.135 M247.785 164.151 C 247.720 177.548,247.605 181.421,247.268 181.557 C 246.928 181.694,246.931 181.738,247.279 181.759 C 248.040 181.806,248.058 181.343,247.962 163.920 L 247.868 146.921 247.785 164.151 M324.458 149.415 C 324.792 149.502,325.338 149.502,325.672 149.415 C 326.006 149.328,325.733 149.257,325.065 149.257 C 324.397 149.257,324.124 149.328,324.458 149.415 M328.621 149.415 C 328.955 149.502,329.501 149.502,329.835 149.415 C 330.169 149.328,329.896 149.257,329.228 149.257 C 328.560 149.257,328.287 149.328,328.621 149.415 M207.264 150.650 L 206.245 151.778 207.372 150.759 C 207.992 150.199,208.500 149.691,208.500 149.632 C 208.500 149.364,208.213 149.599,207.264 150.650 M196.791 154.966 C 197.125 155.053,197.671 155.053,198.005 154.966 C 198.339 154.879,198.066 154.807,197.398 154.807 C 196.730 154.807,196.457 154.879,196.791 154.966 M321.943 169.095 C 321.943 176.935,321.842 179.341,321.509 179.475 C 321.250 179.580,321.320 179.661,321.683 179.678 C 322.248 179.703,322.290 178.989,322.290 169.297 C 322.290 163.573,322.212 158.890,322.116 158.890 C 322.021 158.890,321.943 163.482,321.943 169.095 M228.008 177.277 C 228.008 177.944,228.079 178.218,228.166 177.884 C 228.254 177.550,228.254 177.003,228.166 176.670 C 228.079 176.336,228.008 176.609,228.008 177.277 M280.576 207.357 C 281.008 207.440,281.632 207.437,281.964 207.350 C 282.296 207.263,281.943 207.196,281.180 207.199 C 280.416 207.203,280.145 207.274,280.576 207.357 M290.984 207.357 C 291.416 207.440,292.040 207.437,292.372 207.350 C 292.703 207.263,292.350 207.196,291.587 207.199 C 290.824 207.203,290.553 207.274,290.984 207.357 M46.301 209.280 C 46.210 209.519,46.176 235.239,46.226 266.435 L 46.316 323.157 46.402 266.175 L 46.487 209.193 73.332 209.193 L 100.176 209.193 100.610 210.242 C 100.849 210.818,101.192 211.381,101.372 211.492 C 101.552 211.603,101.372 211.054,100.973 210.270 L 100.246 208.846 73.356 208.846 C 52.163 208.846,46.431 208.938,46.301 209.280 M171.192 209.280 C 171.102 209.519,171.068 235.239,171.118 266.435 L 171.208 323.157 171.293 266.178 L 171.379 209.200 188.985 209.107 L 206.592 209.013 188.974 208.930 C 175.138 208.864,171.322 208.940,171.192 209.280 M138.105 218.300 C 138.186 218.348,138.797 218.855,139.464 219.428 L 140.676 220.468 139.658 219.341 C 139.097 218.721,138.486 218.213,138.299 218.213 C 138.112 218.213,138.025 218.252,138.105 218.300 M328.881 221.097 C 328.881 221.157,329.389 221.664,330.009 222.225 L 331.136 223.244 330.117 222.116 C 329.167 221.065,328.881 220.829,328.881 221.097 M81.692 244.146 L 81.700 253.773 89.679 253.783 L 97.658 253.793 89.771 253.690 L 81.884 253.586 81.784 244.052 L 81.683 234.518 81.692 244.146 M146.134 235.906 C 146.134 236.574,146.206 236.847,146.293 236.513 C 146.380 236.180,146.380 235.633,146.293 235.299 C 146.206 234.965,146.134 235.239,146.134 235.906 M146.134 238.682 C 146.134 239.350,146.206 239.623,146.293 239.289 C 146.380 238.955,146.380 238.408,146.293 238.075 C 146.206 237.741,146.134 238.014,146.134 238.682 M344.927 255.854 C 344.931 256.618,345.002 256.889,345.085 256.457 C 345.168 256.026,345.165 255.401,345.078 255.070 C 344.991 254.738,344.923 255.091,344.927 255.854 M345.305 260.711 C 345.307 262.238,345.368 262.819,345.441 262.003 C 345.514 261.187,345.513 259.938,345.439 259.228 C 345.364 258.517,345.304 259.185,345.305 260.711 M262.714 260.885 C 262.714 261.743,262.781 262.095,262.864 261.665 C 262.947 261.236,262.947 260.533,262.864 260.104 C 262.781 259.675,262.714 260.026,262.714 260.885 M310.235 261.752 C 310.239 262.515,310.310 262.787,310.393 262.355 C 310.476 261.923,310.473 261.299,310.386 260.967 C 310.299 260.636,310.231 260.989,310.235 261.752 M310.247 267.997 C 310.249 268.951,310.317 269.300,310.396 268.772 C 310.476 268.245,310.474 267.464,310.392 267.038 C 310.309 266.611,310.244 267.042,310.247 267.997 M345.305 270.425 C 345.307 271.951,345.368 272.533,345.441 271.717 C 345.514 270.901,345.513 269.652,345.439 268.941 C 345.364 268.231,345.304 268.899,345.305 270.425 M143.799 270.598 C 144.738 271.552,145.585 272.333,145.681 272.333 C 145.776 272.333,145.085 271.552,144.146 270.598 C 143.206 269.644,142.359 268.864,142.264 268.864 C 142.168 268.864,142.859 269.644,143.799 270.598 M262.714 271.292 C 262.714 272.151,262.781 272.502,262.864 272.073 C 262.947 271.644,262.947 270.941,262.864 270.512 C 262.781 270.082,262.714 270.434,262.714 271.292 M344.920 275.455 C 344.920 276.123,344.991 276.396,345.079 276.062 C 345.166 275.729,345.166 275.182,345.079 274.848 C 344.991 274.514,344.920 274.788,344.920 275.455 M86.990 275.368 C 89.900 275.426,94.662 275.426,97.572 275.368 C 100.481 275.310,98.101 275.262,92.281 275.262 C 86.461 275.262,84.081 275.310,86.990 275.368 M81.692 288.031 L 81.700 298.526 90.893 298.534 L 100.087 298.543 90.985 298.442 L 81.884 298.341 81.784 287.939 L 81.684 277.537 81.692 288.031 M151.338 288.291 C 151.338 288.959,151.409 289.232,151.497 288.899 C 151.584 288.565,151.584 288.018,151.497 287.684 C 151.409 287.350,151.338 287.624,151.338 288.291 M270.237 292.194 C 271.088 293.101,271.829 293.842,271.885 293.842 C 272.145 293.842,271.870 293.531,270.338 292.093 L 268.690 290.546 270.237 292.194 M151.338 292.454 C 151.338 293.122,151.409 293.395,151.497 293.062 C 151.584 292.728,151.584 292.181,151.497 291.847 C 151.409 291.513,151.338 291.787,151.338 292.454 M284.909 324.976 C 286.388 325.041,288.807 325.041,290.286 324.976 C 291.765 324.911,290.555 324.858,287.598 324.858 C 284.640 324.858,283.430 324.911,284.909 324.976 " stroke="none" fill="#90894f" fill-rule="evenodd"></path><path id="path4" d="M340.632 38.422 C 340.201 38.972,340.213 38.984,340.763 38.552 C 341.278 38.149,341.463 38.149,341.977 38.552 C 342.528 38.984,342.540 38.972,342.108 38.422 C 341.847 38.088,341.514 37.814,341.370 37.814 C 341.226 37.814,340.894 38.088,340.632 38.422 M337.012 42.758 L 335.993 43.886 337.121 42.867 C 337.741 42.306,338.248 41.799,338.248 41.739 C 338.248 41.471,337.962 41.707,337.012 42.758 M242.609 74.241 C 242.609 75.481,242.672 75.989,242.749 75.369 C 242.826 74.748,242.826 73.734,242.749 73.114 C 242.672 72.493,242.609 73.001,242.609 74.241 M271.292 75.455 C 272.329 76.505,273.255 77.363,273.350 77.363 C 273.446 77.363,272.676 76.505,271.639 75.455 C 270.603 74.406,269.677 73.547,269.581 73.547 C 269.486 73.547,270.256 74.406,271.292 75.455 M114.397 75.193 C 115.781 75.258,118.044 75.258,119.428 75.193 C 120.811 75.127,119.679 75.073,116.912 75.073 C 114.146 75.073,113.014 75.127,114.397 75.193 M107.810 75.527 C 108.241 75.610,108.866 75.607,109.197 75.520 C 109.529 75.433,109.176 75.366,108.413 75.369 C 107.650 75.373,107.378 75.444,107.810 75.527 M124.227 75.408 C 124.306 75.478,125.230 75.624,126.279 75.732 C 127.511 75.860,127.880 75.827,127.320 75.640 C 126.460 75.354,123.949 75.165,124.227 75.408 M99.740 76.686 C 99.256 76.905,99.467 76.936,100.434 76.789 C 101.197 76.673,101.886 76.520,101.966 76.450 C 102.264 76.187,100.406 76.384,99.740 76.686 M132.524 76.670 C 133.710 77.049,134.622 77.049,133.738 76.670 C 133.356 76.506,132.732 76.376,132.350 76.382 C 131.793 76.390,131.827 76.446,132.524 76.670 M94.883 77.710 C 93.999 78.090,94.911 78.090,96.097 77.710 C 96.794 77.487,96.828 77.431,96.271 77.422 C 95.889 77.417,95.265 77.546,94.883 77.710 M242.944 79.965 C 242.947 80.919,243.014 81.268,243.094 80.741 C 243.173 80.214,243.171 79.433,243.089 79.007 C 243.007 78.580,242.941 79.011,242.944 79.965 M276.149 79.887 C 276.149 79.940,277.359 81.150,278.838 82.576 L 281.526 85.169 278.933 82.480 C 276.525 79.983,276.149 79.634,276.149 79.887 M211.417 80.616 C 211.316 80.879,211.293 81.855,211.365 82.785 L 211.497 84.475 211.559 82.506 C 211.609 80.955,211.751 80.503,212.229 80.378 C 212.798 80.229,212.797 80.217,212.218 80.179 C 211.878 80.157,211.518 80.354,211.417 80.616 M331.570 81.087 C 332.381 81.160,333.708 81.160,334.519 81.087 C 335.330 81.014,334.666 80.954,333.044 80.954 C 331.422 80.954,330.759 81.014,331.570 81.087 M243.291 86.557 C 243.294 87.511,243.361 87.860,243.441 87.333 C 243.520 86.805,243.518 86.025,243.436 85.598 C 243.354 85.171,243.288 85.603,243.291 86.557 M283.088 86.479 C 283.088 86.531,284.297 87.741,285.776 89.167 L 288.465 91.761 285.872 89.072 C 283.463 86.575,283.088 86.225,283.088 86.479 M220.382 88.638 C 220.386 89.402,220.457 89.673,220.540 89.241 C 220.623 88.810,220.620 88.185,220.533 87.854 C 220.446 87.522,220.379 87.875,220.382 88.638 M243.652 91.414 C 243.654 92.749,243.717 93.253,243.792 92.533 C 243.867 91.814,243.866 90.721,243.789 90.105 C 243.712 89.489,243.651 90.078,243.652 91.414 M358.543 91.240 C 359.483 92.194,360.330 92.975,360.425 92.975 C 360.520 92.975,359.830 92.194,358.890 91.240 C 357.950 90.286,357.103 89.506,357.008 89.506 C 356.912 89.506,357.603 90.286,358.543 91.240 M60.624 91.439 C 59.328 92.142,59.406 92.435,60.711 91.761 C 61.284 91.465,61.752 91.148,61.752 91.058 C 61.752 90.835,61.715 90.847,60.624 91.439 M220.749 92.801 C 220.751 93.946,220.816 94.373,220.893 93.749 C 220.970 93.126,220.969 92.189,220.890 91.668 C 220.811 91.146,220.747 91.657,220.749 92.801 M301.639 93.408 L 299.219 95.924 301.735 93.505 C 304.071 91.258,304.408 90.893,304.154 90.893 C 304.101 90.893,302.969 92.025,301.639 93.408 M288.321 93.454 L 287.484 94.536 288.476 93.592 C 289.022 93.074,289.399 92.587,289.314 92.511 C 289.228 92.435,288.782 92.859,288.321 93.454 M359.410 96.271 C 358.568 97.129,357.956 97.832,358.052 97.832 C 358.147 97.832,358.914 97.129,359.757 96.271 C 360.600 95.412,361.211 94.709,361.116 94.709 C 361.020 94.709,360.253 95.412,359.410 96.271 M324.458 95.642 C 324.792 95.730,325.338 95.730,325.672 95.642 C 326.006 95.555,325.733 95.484,325.065 95.484 C 324.397 95.484,324.124 95.555,324.458 95.642 M284.291 97.918 L 282.220 100.087 284.389 98.016 C 285.581 96.877,286.557 95.901,286.557 95.848 C 286.557 95.591,286.214 95.904,284.291 97.918 M243.980 97.485 C 243.980 98.343,244.048 98.695,244.130 98.265 C 244.213 97.836,244.213 97.134,244.130 96.704 C 244.048 96.275,243.980 96.626,243.980 97.485 M355.235 100.867 L 353.339 102.862 355.334 100.966 C 357.187 99.204,357.488 98.873,357.230 98.873 C 357.176 98.873,356.278 99.770,355.235 100.867 M314.657 100.781 C 313.815 101.639,313.203 102.342,313.299 102.342 C 313.394 102.342,314.162 101.639,315.004 100.781 C 315.847 99.922,316.458 99.219,316.363 99.219 C 316.268 99.219,315.500 99.922,314.657 100.781 M339.376 100.114 C 339.709 100.511,339.983 100.967,339.983 101.127 C 339.983 101.288,339.709 101.744,339.376 102.141 C 338.769 102.861,338.769 102.861,339.549 102.201 C 339.978 101.838,340.330 101.355,340.330 101.127 C 340.330 100.900,339.978 100.417,339.549 100.054 C 338.769 99.394,338.769 99.394,339.376 100.114 M221.423 101.127 C 221.427 101.891,221.498 102.162,221.581 101.731 C 221.664 101.299,221.661 100.675,221.574 100.343 C 221.487 100.011,221.419 100.364,221.423 101.127 M161.367 100.607 C 161.367 100.893,161.501 101.440,161.665 101.821 C 161.853 102.259,161.963 102.323,161.963 101.995 C 161.963 101.709,161.829 101.162,161.665 100.781 C 161.477 100.343,161.367 100.279,161.367 100.607 M324.892 101.786 C 322.394 102.400,319.480 104.148,319.039 105.297 C 318.850 105.791,320.732 105.676,321.317 105.158 C 321.450 105.040,323.012 105.027,324.787 105.129 C 328.807 105.360,328.807 105.360,330.215 103.621 L 331.376 102.186 329.695 101.750 C 327.680 101.228,327.148 101.232,324.892 101.786 M278.219 104.337 L 276.323 106.331 278.317 104.435 C 279.415 103.392,280.312 102.495,280.312 102.440 C 280.312 102.183,279.980 102.483,278.219 104.337 M221.787 105.117 C 221.787 106.167,221.852 106.596,221.931 106.071 C 222.011 105.546,222.011 104.688,221.931 104.163 C 221.852 103.638,221.787 104.068,221.787 105.117 M337.012 104.857 L 335.993 105.984 337.121 104.965 C 337.741 104.405,338.248 103.898,338.248 103.838 C 338.248 103.570,337.962 103.806,337.012 104.857 M350.208 106.245 L 347.788 108.760 350.304 106.341 C 352.640 104.094,352.977 103.729,352.723 103.729 C 352.670 103.729,351.538 104.861,350.208 106.245 M127.240 104.328 C 127.863 104.405,128.800 104.403,129.321 104.324 C 129.842 104.245,129.332 104.182,128.187 104.184 C 127.042 104.186,126.616 104.251,127.240 104.328 M162.487 108.586 C 162.487 110.590,162.545 111.409,162.615 110.408 C 162.685 109.406,162.685 107.767,162.615 106.765 C 162.545 105.763,162.487 106.583,162.487 108.586 M136.477 106.232 C 136.839 106.477,137.853 107.207,138.732 107.854 C 139.911 108.723,140.125 108.807,139.548 108.178 C 139.118 107.709,138.103 106.979,137.293 106.555 C 136.483 106.132,136.115 105.986,136.477 106.232 M272.498 110.408 L 269.731 113.270 272.593 110.503 C 275.251 107.932,275.613 107.546,275.360 107.546 C 275.308 107.546,274.020 108.833,272.498 110.408 M222.110 108.933 C 222.110 109.601,222.181 109.874,222.269 109.540 C 222.356 109.206,222.356 108.660,222.269 108.326 C 222.181 107.992,222.110 108.265,222.110 108.933 M344.493 112.229 C 343.650 113.088,343.039 113.790,343.134 113.790 C 343.229 113.790,343.997 113.088,344.840 112.229 C 345.682 111.370,346.294 110.668,346.198 110.668 C 346.103 110.668,345.335 111.370,344.493 112.229 M126.539 111.604 C 125.507 111.767,125.387 112.182,125.946 113.653 C 126.366 114.757,127.231 115.498,128.119 115.514 C 129.176 115.532,131.345 116.983,132.216 118.255 C 133.140 119.603,133.496 127.052,132.663 127.593 C 132.136 127.935,132.193 129.055,132.737 129.055 C 132.982 129.055,133.581 128.533,134.067 127.894 C 134.979 126.699,135.212 126.078,134.609 126.450 C 134.409 126.574,134.357 126.426,134.484 126.095 C 134.654 125.651,134.763 125.626,134.981 125.979 C 135.635 127.037,137.027 122.812,137.030 119.761 C 137.037 113.956,132.747 110.620,126.539 111.604 M222.471 113.443 C 222.471 114.302,222.539 114.653,222.621 114.224 C 222.704 113.794,222.704 113.092,222.621 112.663 C 222.539 112.233,222.471 112.585,222.471 113.443 M143.490 114.657 C 143.775 115.933,143.974 116.210,143.967 115.322 C 143.964 114.957,143.803 114.423,143.609 114.137 C 143.352 113.757,143.320 113.897,143.490 114.657 M118.867 115.698 C 119.232 117.349,119.729 118.340,119.476 116.912 C 119.358 116.245,119.121 115.464,118.949 115.178 C 118.745 114.838,118.717 115.018,118.867 115.698 M265.742 117.433 C 264.320 118.864,263.235 120.035,263.330 120.035 C 263.426 120.035,264.667 118.864,266.088 117.433 C 267.510 116.002,268.595 114.831,268.500 114.831 C 268.404 114.831,267.163 116.002,265.742 117.433 M291.872 116.912 C 291.872 118.153,291.935 118.660,292.012 118.040 C 292.089 117.420,292.089 116.405,292.012 115.785 C 291.935 115.165,291.872 115.672,291.872 116.912 M161.492 116.219 C 161.360 116.818,161.325 117.381,161.413 117.470 C 161.501 117.558,161.673 117.132,161.795 116.522 C 162.085 115.076,161.804 114.796,161.492 116.219 M222.804 116.912 C 222.804 117.580,222.875 117.853,222.962 117.520 C 223.050 117.186,223.050 116.639,222.962 116.305 C 222.875 115.971,222.804 116.245,222.804 116.912 M339.277 117.866 L 337.381 119.861 339.376 117.965 C 340.473 116.922,341.370 116.024,341.370 115.970 C 341.370 115.713,341.039 116.013,339.277 117.866 M196.964 116.810 C 197.394 116.893,198.096 116.893,198.526 116.810 C 198.955 116.728,198.604 116.660,197.745 116.660 C 196.886 116.660,196.535 116.728,196.964 116.810 M193.148 117.157 C 193.578 117.240,194.280 117.240,194.709 117.157 C 195.139 117.075,194.788 117.007,193.929 117.007 C 193.070 117.007,192.719 117.075,193.148 117.157 M200.549 117.040 C 200.629 117.110,201.456 117.249,202.389 117.349 C 203.425 117.461,203.896 117.413,203.603 117.227 C 203.153 116.942,200.235 116.763,200.549 117.040 M188.427 118.004 C 187.786 118.189,187.329 118.407,187.411 118.489 C 187.493 118.571,188.252 118.422,189.097 118.157 C 190.822 117.616,190.239 117.483,188.427 118.004 M350.894 119.081 L 349.523 120.555 350.997 119.184 C 352.369 117.908,352.631 117.606,352.369 117.606 C 352.312 117.606,351.649 118.270,350.894 119.081 M323.829 119.775 L 322.810 120.902 323.938 119.883 C 324.558 119.323,325.065 118.815,325.065 118.756 C 325.065 118.488,324.779 118.724,323.829 119.775 M224.458 121.249 C 225.105 121.917,225.713 122.463,225.808 122.463 C 225.904 122.463,225.452 121.917,224.805 121.249 C 224.158 120.581,223.550 120.035,223.455 120.035 C 223.359 120.035,223.811 120.581,224.458 121.249 M358.023 120.490 C 358.023 120.550,358.530 121.057,359.150 121.618 L 360.278 122.637 359.259 121.509 C 358.309 120.458,358.023 120.222,358.023 120.490 M159.642 122.099 C 159.439 122.681,159.347 123.157,159.437 123.157 C 159.671 123.157,160.326 121.355,160.154 121.183 C 160.075 121.104,159.845 121.516,159.642 122.099 M334.420 123.070 L 332.524 125.065 334.519 123.169 C 335.616 122.126,336.513 121.228,336.513 121.174 C 336.513 120.917,336.182 121.217,334.420 123.070 M259.677 123.844 C 258.935 124.604,258.396 125.278,258.479 125.341 C 258.562 125.404,259.235 124.783,259.976 123.960 C 261.666 122.080,261.472 122.006,259.677 123.844 M217.520 124.718 C 218.556 125.768,219.482 126.626,219.577 126.626 C 219.673 126.626,218.903 125.768,217.866 124.718 C 216.830 123.669,215.904 122.810,215.809 122.810 C 215.713 122.810,216.483 123.669,217.520 124.718 M376.269 123.104 C 376.169 123.266,376.589 123.851,377.202 124.405 L 378.317 125.412 377.359 124.347 C 376.831 123.762,376.506 123.176,376.636 123.046 C 376.766 122.916,376.777 122.810,376.661 122.810 C 376.545 122.810,376.369 122.942,376.269 123.104 M362.359 124.545 C 363.104 125.308,363.792 125.932,363.888 125.932 C 363.983 125.932,363.451 125.308,362.706 124.545 C 361.961 123.781,361.273 123.157,361.177 123.157 C 361.082 123.157,361.614 123.781,362.359 124.545 M143.495 124.935 C 143.206 126.381,143.486 126.661,143.799 125.239 C 143.931 124.639,143.966 124.076,143.878 123.987 C 143.789 123.899,143.617 124.325,143.495 124.935 M193.669 124.784 C 194.003 124.871,194.549 124.871,194.883 124.784 C 195.217 124.697,194.944 124.625,194.276 124.625 C 193.608 124.625,193.335 124.697,193.669 124.784 M318.625 125.672 L 317.606 126.800 318.734 125.781 C 319.354 125.220,319.861 124.713,319.861 124.653 C 319.861 124.385,319.575 124.621,318.625 125.672 M121.818 125.239 C 121.818 125.525,121.952 126.071,122.116 126.453 C 122.304 126.890,122.414 126.954,122.414 126.626 C 122.414 126.340,122.280 125.794,122.116 125.412 C 121.928 124.975,121.818 124.911,121.818 125.239 M170.848 128.794 L 168.777 130.963 170.945 128.892 C 172.959 126.969,173.272 126.626,173.016 126.626 C 172.962 126.626,171.987 127.602,170.848 128.794 M183.503 129.662 L 182.307 130.963 183.608 129.767 C 184.819 128.654,185.068 128.361,184.804 128.361 C 184.746 128.361,184.160 128.946,183.503 129.662 M366.684 133.825 L 364.788 135.820 366.782 133.923 C 368.636 132.162,368.936 131.830,368.679 131.830 C 368.624 131.830,367.727 132.728,366.684 133.825 M209.887 133.738 C 209.887 134.406,209.948 134.952,210.023 134.952 C 210.097 134.952,210.222 134.406,210.300 133.738 C 210.378 133.070,210.317 132.524,210.165 132.524 C 210.012 132.524,209.887 133.070,209.887 133.738 M137.381 135.126 C 136.538 135.984,135.927 136.687,136.022 136.687 C 136.117 136.687,136.885 135.984,137.728 135.126 C 138.570 134.267,139.182 133.565,139.086 133.565 C 138.991 133.565,138.223 134.267,137.381 135.126 M189.846 134.605 C 189.846 135.273,189.918 135.546,190.005 135.212 C 190.092 134.879,190.092 134.332,190.005 133.998 C 189.918 133.664,189.846 133.938,189.846 134.605 M179.927 135.719 C 179.810 136.156,179.730 136.904,179.748 137.381 C 179.767 137.892,179.905 137.616,180.083 136.709 C 180.402 135.084,180.289 134.368,179.927 135.719 M212.080 139.462 C 212.080 140.703,212.143 141.210,212.220 140.590 C 212.297 139.970,212.297 138.955,212.220 138.335 C 212.143 137.715,212.080 138.222,212.080 139.462 M225.049 139.636 C 225.159 140.590,225.306 141.435,225.374 141.515 C 225.633 141.816,225.436 139.258,225.149 138.595 C 224.956 138.149,224.920 138.520,225.049 139.636 M207.093 139.722 L 205.898 141.023 207.199 139.828 C 208.410 138.715,208.659 138.422,208.394 138.422 C 208.336 138.422,207.751 139.007,207.093 139.722 M233.225 140.850 C 233.225 141.709,233.293 142.060,233.376 141.631 C 233.458 141.201,233.458 140.499,233.376 140.069 C 233.293 139.640,233.225 139.991,233.225 140.850 M145.179 143.365 L 142.064 146.574 145.273 143.459 C 148.254 140.566,148.640 140.156,148.388 140.156 C 148.337 140.156,146.893 141.600,145.179 143.365 M179.730 141.399 C 179.743 142.147,179.887 143.070,180.049 143.452 C 180.232 143.884,180.270 143.425,180.149 142.238 C 179.916 139.953,179.696 139.512,179.730 141.399 M126.654 140.741 C 126.534 142.533,127.492 143.208,128.708 142.189 L 129.575 141.461 128.591 142.051 C 127.469 142.722,127.535 142.752,127.048 141.370 C 126.846 140.798,126.669 140.515,126.654 140.741 M225.598 144.493 C 225.601 145.447,225.668 145.796,225.748 145.268 C 225.827 144.741,225.825 143.961,225.743 143.534 C 225.661 143.107,225.595 143.539,225.598 144.493 M247.843 143.409 C 247.743 143.672,247.711 144.648,247.774 145.577 L 247.888 147.268 248.055 145.099 C 248.224 142.908,248.178 142.539,247.843 143.409 M233.582 145.360 C 233.582 146.409,233.647 146.839,233.726 146.314 C 233.806 145.789,233.806 144.931,233.726 144.406 C 233.647 143.881,233.582 144.310,233.582 145.360 M160.823 145.211 C 160.695 145.720,160.658 146.203,160.739 146.284 C 160.821 146.366,160.992 146.017,161.120 145.509 C 161.248 145.000,161.285 144.517,161.203 144.436 C 161.122 144.354,160.950 144.703,160.823 145.211 M294.189 146.227 C 294.836 146.895,295.444 147.441,295.539 147.441 C 295.635 147.441,295.183 146.895,294.536 146.227 C 293.889 145.559,293.281 145.013,293.186 145.013 C 293.090 145.013,293.542 145.559,294.189 146.227 M225.246 148.482 C 225.246 149.341,225.314 149.692,225.397 149.263 C 225.479 148.833,225.479 148.131,225.397 147.702 C 225.314 147.272,225.246 147.624,225.246 148.482 M233.225 149.870 C 233.225 150.729,233.293 151.080,233.376 150.650 C 233.458 150.221,233.458 149.519,233.376 149.089 C 233.293 148.660,233.225 149.011,233.225 149.870 M183.868 150.043 C 184.515 150.711,185.123 151.258,185.219 151.258 C 185.314 151.258,184.862 150.711,184.215 150.043 C 183.568 149.376,182.960 148.829,182.865 148.829 C 182.769 148.829,183.221 149.376,183.868 150.043 M322.207 149.421 C 322.639 149.504,323.263 149.501,323.595 149.414 C 323.926 149.328,323.573 149.260,322.810 149.264 C 322.047 149.267,321.775 149.338,322.207 149.421 M330.880 149.421 C 331.312 149.504,331.936 149.501,332.268 149.414 C 332.599 149.328,332.246 149.260,331.483 149.264 C 330.720 149.267,330.448 149.338,330.880 149.421 M326.366 149.768 C 326.795 149.851,327.498 149.851,327.927 149.768 C 328.356 149.685,328.005 149.617,327.147 149.617 C 326.288 149.617,325.937 149.685,326.366 149.768 M232.307 154.914 C 232.188 155.224,232.104 155.738,232.120 156.056 C 232.136 156.374,232.287 156.174,232.455 155.612 C 232.782 154.517,232.667 153.975,232.307 154.914 M214.397 170.512 C 213.555 171.370,212.943 172.073,213.039 172.073 C 213.134 172.073,213.901 171.370,214.744 170.512 C 215.587 169.653,216.198 168.951,216.103 168.951 C 216.007 168.951,215.240 169.653,214.397 170.512 M227.337 171.032 C 227.337 172.082,227.402 172.511,227.482 171.986 C 227.561 171.461,227.561 170.603,227.482 170.078 C 227.402 169.553,227.337 169.983,227.337 171.032 M135.348 169.991 C 135.348 170.278,135.482 170.824,135.646 171.206 C 135.834 171.643,135.944 171.707,135.944 171.379 C 135.944 171.093,135.810 170.546,135.646 170.165 C 135.458 169.727,135.348 169.663,135.348 169.991 M211.427 173.547 L 210.408 174.675 211.535 173.656 C 212.155 173.095,212.663 172.588,212.663 172.528 C 212.663 172.260,212.376 172.496,211.427 173.547 M167.389 175.195 C 168.522 176.340,169.527 177.277,169.623 177.277 C 169.718 177.277,168.869 176.340,167.736 175.195 C 166.603 174.050,165.598 173.114,165.503 173.114 C 165.408 173.114,166.257 174.050,167.389 175.195 M137.093 176.583 C 137.110 177.484,137.657 178.965,137.669 178.144 C 137.674 177.762,137.545 177.138,137.381 176.756 C 137.198 176.331,137.087 176.264,137.093 176.583 M228.413 182.912 C 228.446 184.306,228.506 184.390,229.488 184.421 C 230.431 184.450,230.441 184.440,229.594 184.314 C 228.790 184.194,228.639 183.981,228.519 182.804 L 228.379 181.435 228.413 182.912 M243.972 182.373 C 244.306 182.460,244.853 182.460,245.186 182.373 C 245.520 182.285,245.247 182.214,244.579 182.214 C 243.912 182.214,243.638 182.285,243.972 182.373 M185.516 183.081 C 186.327 183.154,187.654 183.154,188.465 183.081 C 189.276 183.008,188.612 182.949,186.990 182.949 C 185.369 182.949,184.705 183.008,185.516 183.081 M236.687 183.413 C 237.021 183.501,237.567 183.501,237.901 183.413 C 238.235 183.326,237.962 183.255,237.294 183.255 C 236.626 183.255,236.353 183.326,236.687 183.413 M143.653 202.139 C 143.638 202.553,143.430 202.970,143.192 203.066 C 142.852 203.203,142.854 203.247,143.203 203.268 C 143.729 203.301,144.112 202.463,143.859 201.833 C 143.761 201.588,143.668 201.726,143.653 202.139 M123.038 209.280 C 123.248 209.622,124.255 209.604,124.814 209.248 C 125.088 209.075,124.801 208.977,124.068 208.994 C 123.414 209.008,122.951 209.137,123.038 209.280 M206.587 265.915 C 206.587 297.398,206.628 310.226,206.678 294.422 C 206.728 278.618,206.728 252.859,206.678 237.180 C 206.628 221.501,206.587 234.432,206.587 265.915 M243.009 222.463 L 240.590 224.978 243.105 222.559 C 245.441 220.312,245.779 219.948,245.524 219.948 C 245.471 219.948,244.339 221.080,243.009 222.463 M332.003 224.284 C 332.651 224.952,333.258 225.499,333.354 225.499 C 333.449 225.499,332.998 224.952,332.350 224.284 C 331.703 223.617,331.095 223.070,331.000 223.070 C 330.905 223.070,331.356 223.617,332.003 224.284 M98.959 232.329 C 99.293 232.417,99.840 232.417,100.173 232.329 C 100.507 232.242,100.234 232.171,99.566 232.171 C 98.899 232.171,98.625 232.242,98.959 232.329 M285.436 233.729 C 286.059 233.807,286.996 233.805,287.517 233.726 C 288.038 233.647,287.528 233.583,286.383 233.585 C 285.239 233.587,284.812 233.652,285.436 233.729 M270.252 239.896 C 269.409 240.755,268.797 241.457,268.893 241.457 C 268.988 241.457,269.756 240.755,270.598 239.896 C 271.441 239.037,272.053 238.335,271.957 238.335 C 271.862 238.335,271.094 239.037,270.252 239.896 M302.689 240.069 C 303.434 240.833,304.122 241.457,304.217 241.457 C 304.313 241.457,303.781 240.833,303.036 240.069 C 302.290 239.306,301.602 238.682,301.507 238.682 C 301.412 238.682,301.943 239.306,302.689 240.069 M139.115 255.507 C 138.273 256.366,137.661 257.069,137.757 257.069 C 137.852 257.069,138.620 256.366,139.462 255.507 C 140.305 254.649,140.916 253.946,140.821 253.946 C 140.726 253.946,139.958 254.649,139.115 255.507 M345.267 257.069 C 345.267 257.736,345.338 258.010,345.426 257.676 C 345.513 257.342,345.513 256.795,345.426 256.461 C 345.338 256.127,345.267 256.401,345.267 257.069 M263.054 258.977 C 263.058 259.740,263.129 260.011,263.212 259.580 C 263.295 259.148,263.291 258.524,263.205 258.192 C 263.118 257.860,263.050 258.213,263.054 258.977 M345.671 265.395 C 345.671 268.161,345.725 269.293,345.791 267.910 C 345.857 266.526,345.857 264.263,345.791 262.879 C 345.725 261.496,345.671 262.628,345.671 265.395 M262.750 266.088 C 262.750 268.283,262.807 269.180,262.876 268.083 C 262.944 266.986,262.944 265.191,262.876 264.094 C 262.807 262.997,262.750 263.894,262.750 266.088 M310.251 264.701 C 310.251 265.750,310.316 266.180,310.396 265.655 C 310.475 265.130,310.475 264.271,310.396 263.747 C 310.316 263.222,310.251 263.651,310.251 264.701 M227.352 266.262 C 227.353 267.788,227.414 268.370,227.488 267.554 C 227.561 266.738,227.560 265.489,227.485 264.778 C 227.411 264.068,227.351 264.735,227.352 266.262 M143.278 269.666 C 143.278 269.726,143.786 270.233,144.406 270.794 L 145.533 271.813 144.514 270.685 C 143.565 269.634,143.278 269.398,143.278 269.666 M263.054 273.200 C 263.058 273.964,263.129 274.235,263.212 273.803 C 263.295 273.372,263.291 272.747,263.205 272.416 C 263.118 272.084,263.050 272.437,263.054 273.200 M345.267 274.068 C 345.267 274.735,345.338 275.009,345.426 274.675 C 345.513 274.341,345.513 273.794,345.426 273.461 C 345.338 273.127,345.267 273.400,345.267 274.068 M102.953 275.701 C 103.384 275.784,104.009 275.781,104.341 275.694 C 104.672 275.607,104.319 275.539,103.556 275.543 C 102.793 275.547,102.521 275.618,102.953 275.701 M115.983 286.557 C 115.983 287.797,116.046 288.304,116.123 287.684 C 116.200 287.064,116.200 286.049,116.123 285.429 C 116.046 284.809,115.983 285.317,115.983 286.557 M297.311 295.924 C 296.644 296.289,296.222 296.595,296.375 296.603 C 296.742 296.622,298.699 295.605,298.699 295.394 C 298.699 295.167,298.679 295.175,297.311 295.924 M102.428 298.244 C 102.762 298.332,103.309 298.332,103.643 298.244 C 103.977 298.157,103.703 298.086,103.036 298.086 C 102.368 298.086,102.095 298.157,102.428 298.244 M243.365 310.147 C 244.691 311.483,245.853 312.576,245.948 312.576 C 246.044 312.576,245.037 311.483,243.712 310.147 C 242.387 308.812,241.224 307.719,241.129 307.719 C 241.033 307.719,242.040 308.812,243.365 310.147 M330.085 309.887 L 328.014 312.056 330.182 309.985 C 331.375 308.846,332.350 307.870,332.350 307.817 C 332.350 307.560,332.008 307.873,330.085 309.887 M142.573 312.836 L 140.676 314.831 142.671 312.935 C 144.525 311.173,144.825 310.841,144.568 310.841 C 144.513 310.841,143.616 311.739,142.573 312.836 M178.948 323.243 C 183.207 323.299,190.076 323.299,194.213 323.243 C 198.350 323.188,194.866 323.143,186.470 323.143 C 178.075 323.143,174.690 323.188,178.948 323.243 M280.225 324.963 C 280.655 325.046,281.357 325.046,281.787 324.963 C 282.216 324.880,281.865 324.813,281.006 324.813 C 280.147 324.813,279.796 324.880,280.225 324.963 M293.413 324.963 C 293.844 325.046,294.469 325.043,294.800 324.956 C 295.132 324.870,294.779 324.802,294.016 324.806 C 293.252 324.809,292.981 324.881,293.413 324.963 " stroke="none" fill="#79837c" fill-rule="evenodd"></path></g></svg>